<svg width="146" height="81" viewBox="0 0 146 81" fill="none" xmlns="http://www.w3.org/2000/svg">
<g clip-path="url(#clip0_129_62)">
<path d="M43.0001 50C42.8418 49.9925 42.6855 50.0374 42.5553 50.1278C42.4251 50.2182 42.3284 50.349 42.2801 50.5C41.9917 51.2563 41.8198 52.0521 41.7701 52.86C41.7001 54.55 41.6201 56.3 41.6901 57.93C41.7028 58.3971 41.7563 58.8622 41.8501 59.32C41.9696 59.831 42.0201 60.3556 42.0001 60.88C41.9795 61.04 42.0125 61.2024 42.0939 61.3417C42.1753 61.481 42.3006 61.5894 42.4501 61.65C42.5416 61.6899 42.6404 61.7103 42.7401 61.71C42.8509 61.7113 42.9604 61.6877 43.0608 61.6409C43.1612 61.5942 43.2498 61.5255 43.3201 61.44C43.4713 61.2585 43.6387 61.0912 43.8201 60.94C44.1423 60.6861 44.4069 60.3667 44.5965 60.003C44.7861 59.6393 44.8964 59.2395 44.9201 58.83C45.2001 56.53 44.3301 52.5 43.7101 50.51C43.6613 50.3606 43.5661 50.2307 43.4385 50.139C43.3108 50.0473 43.1573 49.9986 43.0001 50ZM43.4301 58.65C43.4216 58.8035 43.3913 58.955 43.3401 59.1C43.2608 58.718 43.214 58.3299 43.2001 57.94V55C43.4348 56.1948 43.5221 57.4139 43.4601 58.63L43.4301 58.65Z" fill="black"/>
<path d="M77.7501 64.38C77.5932 64.3788 77.4397 64.4262 77.3108 64.5157C77.1819 64.6053 77.0838 64.7325 77.0301 64.88C76.7417 65.6363 76.5698 66.4321 76.5201 67.24C76.4501 68.93 76.3701 70.67 76.4401 72.31C76.4533 72.7771 76.5069 73.2421 76.6001 73.7C76.718 74.2145 76.7651 74.7427 76.7401 75.27C76.7206 75.4312 76.7539 75.5944 76.835 75.7351C76.9162 75.8757 77.0408 75.9862 77.1901 76.05C77.2816 76.0899 77.3804 76.1103 77.4801 76.11C77.5909 76.1113 77.7004 76.0876 77.8008 76.0409C77.9012 75.9942 77.9898 75.9255 78.0601 75.84C78.2113 75.6585 78.3787 75.4912 78.5601 75.34C78.8822 75.0905 79.1471 74.7748 79.3368 74.4143C79.5266 74.0538 79.6368 73.6568 79.6601 73.25C79.9401 70.94 79.0701 66.92 78.4501 64.93C78.4104 64.774 78.3203 64.6354 78.1937 64.5359C78.0671 64.4365 77.9111 64.3816 77.7501 64.38ZM78.1801 73C78.1707 73.1501 78.1404 73.2982 78.0901 73.44C78.0112 73.0579 77.9644 72.6699 77.9501 72.28V69.41C78.1705 70.5931 78.2478 71.7984 78.1801 73Z" fill="black"/>
<path d="M137.4 59.83C137.923 58.2043 137.923 56.4557 137.4 54.83C137.15 53.72 136.83 52.69 136.52 51.69C135.793 49.6722 135.385 47.5535 135.31 45.41C135.31 43.96 135.41 42.41 135.53 40.85C135.98 34.38 136.53 27.04 129.47 23.45C126.72 22.05 124.87 22.06 122.15 22.25C121.032 22.3198 119.909 22.3198 118.79 22.25C117.327 22.1153 115.854 22.1153 114.39 22.25C112.13 22.55 109.85 22.99 107.65 23.4L107.34 23.46C105.21 23.8 103.11 24.04 101.05 24.21C101.148 22.6405 101.124 21.0659 100.98 19.5C100.888 17.5992 100.437 15.733 99.6504 14C98.6307 11.8523 96.9484 10.0887 94.8511 8.96895C92.7538 7.84919 90.3524 7.43242 88.0004 7.78C86.7068 7.90527 85.4041 7.90527 84.1104 7.78C82.8491 7.68009 81.5818 7.68009 80.3204 7.78C77.7804 8.03 75.3204 8.49 72.5504 9C67.4198 9.74556 62.2447 10.1431 57.0604 10.19C55.0862 10.2525 53.11 10.2091 51.1404 10.06C49.6804 9.98 48.1404 9.9 46.6804 9.89H42.3504C41.7707 7.74392 40.6678 5.77514 39.1404 4.16C37.0732 1.87795 34.263 0.40376 31.2104 -2.44239e-07C31.0134 -0.0169144 30.8176 0.043595 30.6645 0.168686C30.5114 0.293777 30.4131 0.473603 30.3904 0.67C30.3679 0.864929 30.4237 1.06082 30.5456 1.21459C30.6675 1.36837 30.8455 1.46743 31.0404 1.49C33.7323 1.86725 36.208 3.17232 38.0404 5.18C39.2895 6.52349 40.2223 8.12936 40.7704 9.88H37.7704C37.1408 8.45875 36.1853 7.20574 34.9813 6.22242C33.7774 5.2391 32.3588 4.55312 30.8404 4.22C30.6446 4.18421 30.4425 4.22566 30.2765 4.33567C30.1106 4.44567 29.9937 4.61567 29.9504 4.81C29.9299 4.90522 29.9283 5.00356 29.9459 5.09938C29.9634 5.19519 29.9997 5.2866 30.0527 5.36836C30.1056 5.45012 30.1742 5.52062 30.2545 5.57581C30.3347 5.63101 30.4251 5.66981 30.5204 5.69C32.1841 6.04653 33.6967 6.90936 34.8504 8.16C35.3234 8.67741 35.7298 9.25185 36.0604 9.87H34.2404L33.0604 9.93V9.88C32.2201 8.97395 31.1006 8.37545 29.8804 8.18C29.7818 8.16137 29.6804 8.16273 29.5823 8.18401C29.4842 8.20529 29.3913 8.24604 29.3093 8.30386C29.2272 8.36168 29.1576 8.43539 29.1045 8.52061C29.0515 8.60583 29.0161 8.70084 29.0004 8.8C28.9716 8.99734 29.0215 9.1981 29.1393 9.35899C29.2572 9.51987 29.4336 9.62798 29.6304 9.66C30.0253 9.73172 30.4087 9.85616 30.7704 10.03L28.1204 10.16H27.6604C27.4502 10.0722 27.2275 10.0182 27.0004 10H26.8404L25.8404 9.56H25.7004C25.5165 9.52069 25.3284 9.5039 25.1404 9.51H24.9204C24.7362 9.43974 24.5587 9.35271 24.3904 9.25C24.108 9.0801 23.8057 8.94575 23.4904 8.85C23.6215 8.75253 23.7392 8.63821 23.8404 8.51C24.3741 7.779 24.7178 6.92677 24.8404 6.03L25.2404 4.67V4.56C25.3328 4.13236 25.3306 3.68969 25.2338 3.26301C25.1371 2.83633 24.9482 2.43597 24.6804 2.09C24.3614 1.73413 23.917 1.51553 23.4404 1.48C23.3406 1.40034 23.222 1.3475 23.096 1.3265C22.97 1.3055 22.8407 1.31703 22.7204 1.36L22.5704 1.42C21.7904 1.6379 21.0805 2.05488 20.5104 2.63C20.2531 2.92362 20.053 3.26279 19.9204 3.63L19.8304 3.83C19.5681 4.38119 19.1812 4.86388 18.7004 5.24L18.3604 5.05C18.3924 4.96698 18.4093 4.87895 18.4104 4.79C18.4156 4.67865 18.3969 4.56748 18.3555 4.46398C18.3141 4.36048 18.251 4.26705 18.1704 4.19L18.1104 4.14C18.1142 4.11012 18.1142 4.07988 18.1104 4.05C18.0146 3.8011 17.8758 3.57094 17.7004 3.37C16.8028 2.71607 15.7824 2.25009 14.7004 2C14.5328 2.01321 14.3761 2.08802 14.2604 2.21C14.1878 2.25541 14.1236 2.31291 14.0704 2.38C13.9008 2.36481 13.7301 2.36481 13.5604 2.38H13.4004C13.2131 2.40033 13.0386 2.48535 12.9072 2.62042C12.7758 2.75549 12.6956 2.93216 12.6804 3.12C12.4088 3.33761 12.1668 3.58974 11.9604 3.87C11.7894 4.14197 11.6454 4.43001 11.5304 4.73C11.4456 4.97171 11.3278 5.20054 11.1804 5.41C11.0007 5.15543 10.7601 4.94981 10.4807 4.81185C10.2013 4.67388 9.89181 4.60793 9.58041 4.62C9.39119 4.62455 9.20489 4.6677 9.03294 4.7468C8.86098 4.8259 8.70699 4.93928 8.58041 5.08C8.14067 5.8143 7.93813 6.66637 8.00041 7.52V8.15C7.93041 8.26 7.77041 8.45 7.67041 8.57C7.47422 8.78308 7.3031 9.01795 7.16041 9.27C6.93381 9.67832 6.77507 10.1208 6.69041 10.58C6.69947 10.7325 6.6791 10.8852 6.63041 11.03C6.62144 11.2374 6.58443 11.4426 6.52041 11.64C6.30583 12.0232 6.02084 12.3625 5.68041 12.64C5.52041 12.8 5.35041 12.95 5.20041 13.12C5.15486 13.1666 5.11766 13.2208 5.09041 13.28L4.73041 13.94L3.89041 14.88C3.70041 15.1 3.53041 15.34 3.36041 15.57C3.1446 15.8917 2.90386 16.196 2.64041 16.48C2.41737 16.6803 2.18008 16.8641 1.93041 17.03C1.11041 17.61 0.170411 18.26 0.000410932 19.11C-0.00555203 19.1665 -0.00555203 19.2235 0.000410932 19.28C-0.0218767 19.6172 0.0153579 19.9557 0.110411 20.28L0.170411 20.58C0.540411 22.94 1.37041 23.31 3.07041 23.84H3.20041C3.94162 24.1123 4.7337 24.2182 5.52041 24.15C6.47041 24.03 13.2004 23.74 14.2204 24.15C14.9104 24.6996 15.628 25.2136 16.3704 25.69L16.6004 25.85C17.0319 26.2887 17.3718 26.8087 17.6004 27.38C17.7804 27.73 17.9604 28.06 18.1404 28.38C18.4027 28.7905 18.6899 29.1846 19.0004 29.56C18.8633 29.6862 18.7796 29.8602 18.7666 30.0461C18.7536 30.232 18.8122 30.4159 18.9304 30.56L19.0104 30.67C18.7143 31.0503 18.5525 31.518 18.5504 32V34.92C18.5397 35.1722 18.5788 35.424 18.6655 35.6611C18.7522 35.8981 18.8848 36.1158 19.0557 36.3015C19.2266 36.4873 19.4324 36.6375 19.6615 36.7437C19.8905 36.8498 20.1382 36.9097 20.3904 36.92H22.4504C22.7469 36.9245 23.0406 36.863 23.3104 36.74C26.1304 39.9 32.6504 43.06 35.9204 43.15C36.0404 43.58 36.1904 44.05 36.3404 44.55C36.8156 45.8378 37.1183 47.1828 37.2404 48.55C37.2726 49.4094 37.4344 50.259 37.7204 51.07C37.8799 51.5645 38.0068 52.0689 38.1004 52.58C38.6204 55.79 38.5604 60.87 36.2404 61.7C36.1687 61.7267 36.1013 61.7637 36.0404 61.81C35.3804 62.3 33.5104 64.63 33.8704 65.59C34.1304 66.25 35.7104 66.42 37.1304 66.42C37.9292 66.424 38.7275 66.3773 39.5204 66.28C39.9666 66.254 40.3912 66.0794 40.7265 65.784C41.0618 65.4886 41.2885 65.0893 41.3704 64.65L41.5204 64.24C41.8929 64.3557 42.2803 64.4164 42.6704 64.42H42.9504C44.3122 64.6844 45.7219 64.5382 47.0004 64C47.4032 63.723 47.7291 63.3484 47.9477 62.9112C48.1664 62.4739 48.2705 61.9884 48.2504 61.5C49.0104 61.29 49.2004 59.96 49.2004 59.61C49.1778 58.6856 48.9951 57.772 48.6604 56.91C48.1889 55.5772 47.916 54.1822 47.8504 52.77C47.7404 50.08 47.9104 45.23 48.0304 42.77C49.6566 42.6678 51.2884 42.6946 52.9104 42.85C53.2504 43.35 53.6104 43.85 53.9704 44.28C54.4948 44.9089 54.9695 45.5776 55.3904 46.28L55.6104 46.74C56.0104 47.54 56.9504 49.43 57.0804 49.74C57.0765 49.7799 57.0765 49.8201 57.0804 49.86C59.0804 53.36 66.8804 57.33 70.5604 57.44C70.6804 57.86 70.8304 58.34 70.9804 58.84C71.4557 60.1278 71.7583 61.4728 71.8804 62.84C71.9135 63.6993 72.0753 64.5487 72.3604 65.36C72.5199 65.8545 72.6468 66.3589 72.7404 66.87C73.2604 70.08 73.2004 75.15 70.8804 75.99C70.8069 76.0125 70.7388 76.05 70.6804 76.1C70.0204 76.59 68.1504 78.92 68.5104 79.87C68.7704 80.54 70.3504 80.71 71.7804 80.71C72.5792 80.7136 73.3775 80.6669 74.1704 80.57C74.6148 80.5419 75.0371 80.3663 75.3704 80.071C75.7037 79.7758 75.9289 79.3778 76.0104 78.94L76.1604 78.52C76.5294 78.6375 76.9133 78.7015 77.3004 78.71H77.5904C78.9636 78.9792 80.3862 78.8258 81.6704 78.27C82.093 78.0028 82.4382 77.6296 82.6716 77.1874C82.905 76.7453 83.0183 76.2496 83.0004 75.75C83.7604 75.54 84.0004 74.21 84.0004 73.86C83.9778 72.9356 83.7951 72.022 83.4604 71.16C82.9699 69.8234 82.6801 68.4215 82.6004 67V64.47L82.8304 64.37C83.6165 63.844 84.1684 63.034 84.3704 62.11C84.4304 61.93 84.5204 61.69 84.5804 61.56C85.4404 61.32 85.8904 60.94 86.0504 59.67C86.1143 59.2868 86.1344 58.8977 86.1104 58.51C86.0828 58.1745 86.1098 57.8368 86.1904 57.51C86.2231 57.3604 86.2666 57.2134 86.3204 57.07C87.0104 57.07 87.7004 57.15 88.4104 57.2C89.7704 57.3 91.1704 57.4 92.5804 57.39C92.4904 58.04 92.3904 58.69 92.2504 59.39H92.1804C91.8481 59.6066 91.5541 59.877 91.3104 60.19V60.26C91.2104 60.42 90.9604 60.73 90.6704 61.12C89.2304 62.99 88.6704 63.76 88.6704 64.35C88.6765 64.507 88.7196 64.6603 88.796 64.7976C88.8725 64.9348 88.9802 65.0521 89.1104 65.14C89.9031 65.4985 90.7728 65.6532 91.6404 65.59C92.767 65.6129 93.8903 65.4611 94.9704 65.14C96.4204 64.66 97.1204 62.37 97.3304 61.53H97.4004C97.5884 61.4537 97.7575 61.3372 97.8957 61.1887C98.0339 61.0401 98.1379 60.863 98.2004 60.67C98.411 59.7999 98.3374 58.8852 97.9904 58.06C97.8849 57.8136 97.811 57.5549 97.7704 57.29C99.376 57.2516 100.977 57.0979 102.56 56.83C102.96 56.75 103.42 56.69 103.92 56.62C105.88 56.4571 107.795 55.9528 109.58 55.13C110.413 55.8815 111.389 56.4564 112.45 56.82C112.36 57.82 112.27 59.56 112.84 60.24C112.933 60.3547 113.051 60.4474 113.184 60.5114C113.317 60.5753 113.463 60.609 113.61 60.61C114.26 60.61 114.61 60.11 114.93 59.39C115.07 60.18 115.38 60.81 116.16 60.81C116.94 60.81 117.22 60.24 117.4 59.5V59.8C117.4 61.36 117.4 62.8 117.33 64.39C117.295 66.205 117.019 68.0074 116.51 69.75C116.157 70.9118 115.485 71.9512 114.57 72.75C114.34 72.99 114.09 73.25 113.85 73.52C113.85 73.52 110.85 76.97 111.6 78.32C111.703 78.4791 111.836 78.616 111.992 78.7225C112.149 78.829 112.325 78.903 112.51 78.94C114.187 79.2861 115.922 79.2243 117.57 78.76C118.356 78.234 118.908 77.424 119.11 76.5C119.18 76.32 119.26 76.08 119.32 75.95C120.18 75.71 120.63 75.33 120.79 74.05C120.831 73.7013 120.834 73.3494 120.8 73C120.774 72.6645 120.801 72.3271 120.88 72C121.224 70.7276 121.682 69.4892 122.25 68.3C122.684 67.3606 123.067 66.3993 123.4 65.42C123.53 65.09 123.65 64.75 123.77 64.42C124.193 63.0793 124.739 61.7805 125.4 60.54C126.571 62.7619 127.282 65.1971 127.49 67.7H127.36C127.177 67.7 127.002 67.7727 126.873 67.9021C126.743 68.0315 126.67 68.207 126.67 68.39V72.22C126.67 72.3616 126.714 72.4998 126.796 72.6148C126.879 72.7298 126.996 72.8156 127.13 72.86C127.07 73.2 127.01 73.54 126.94 73.86H126.87C126.516 74.0947 126.205 74.389 125.95 74.73C125.85 74.88 125.61 75.2 125.31 75.58C123.87 77.46 123.31 78.23 123.31 78.81C123.315 78.9687 123.357 79.124 123.434 79.2631C123.51 79.4023 123.619 79.5212 123.75 79.61C124.75 80.28 128.31 80.1 129.6 79.61C131.05 79.13 131.75 76.83 131.97 76H132.03C132.22 75.9255 132.39 75.8096 132.528 75.6608C132.666 75.512 132.77 75.334 132.83 75.14C133.041 74.2699 132.967 73.3552 132.62 72.53C131.95 70.89 132.3 68.73 132.62 66.63C132.826 65.5265 132.959 64.4108 133.02 63.29V60.65C133.066 60.2243 133.17 59.8069 133.33 59.41C133.468 59.0256 133.575 58.6311 133.65 58.23V58C133.648 58.2754 133.675 58.5502 133.73 58.82C133.875 59.5388 133.966 60.2675 134 61C134.042 62.5338 134.54 64.0204 135.43 65.27C135.518 65.4211 135.657 65.5361 135.822 65.5947C135.987 65.6532 136.167 65.6516 136.33 65.59C136.495 65.5316 136.633 65.4177 136.723 65.2681C136.812 65.1184 136.847 64.9423 136.82 64.77C136.482 63.2922 136.633 61.7447 137.25 60.36L137.4 59.83ZM21.2404 30H21.1504C20.8904 29.63 20.6204 29.29 20.3504 29C19.9876 28.5516 19.6536 28.0807 19.3504 27.59C19.1904 27.35 19.0404 27.06 18.8804 26.76C18.5442 25.9597 18.0233 25.2504 17.3604 24.69L17.1204 24.53C15.9404 23.72 15.2704 23.25 15.1204 23.12C14.1204 22.04 5.27041 22.77 5.20041 22.78C4.63185 22.808 4.06357 22.7195 3.53041 22.52H3.42041C2.00041 22 1.79041 21.93 1.55041 20.38C1.53745 20.2443 1.51064 20.1103 1.47041 19.98C1.41488 19.7986 1.38789 19.6097 1.39041 19.42C1.38612 19.3935 1.38612 19.3665 1.39041 19.34C1.76162 18.9057 2.20062 18.5342 2.69041 18.24C3.02468 18.0174 3.33917 17.7665 3.63041 17.49C3.93778 17.1566 4.22179 16.8025 4.48041 16.43C4.63041 16.22 4.78041 16.01 4.92041 15.83L5.81041 14.83C5.84943 14.784 5.88299 14.7337 5.91041 14.68L6.26041 14L6.61041 13.66C7.09412 13.2565 7.49197 12.76 7.78041 12.2C7.9176 11.8525 7.99208 11.4835 8.00041 11.11C7.99236 10.9911 8.0094 10.8719 8.05041 10.76C8.10449 10.4579 8.2093 10.1671 8.36041 9.9C8.46041 9.76 8.56708 9.62667 8.68041 9.5C8.96926 9.21759 9.1943 8.87662 9.34041 8.5C9.35523 8.42741 9.35523 8.35258 9.34041 8.28V7.47C9.3082 7.00993 9.36594 6.54799 9.51041 6.11C9.59041 6.11 9.66041 6.17 9.88041 6.41C10.0337 6.65658 10.2625 6.84715 10.5327 6.95343C10.8029 7.05972 11.1002 7.07605 11.3804 7C11.7168 6.84321 12.0152 6.61543 12.2551 6.33232C12.4951 6.04922 12.6709 5.71751 12.7704 5.36C12.8487 5.15801 12.9458 4.96383 13.0604 4.78C13.2151 4.57013 13.4005 4.38472 13.6104 4.23L13.9504 3.94H14.7004C14.8809 3.93181 15.0519 3.85698 15.1804 3.73C15.6328 3.92499 16.0706 4.15224 16.4904 4.41C16.5512 4.49715 16.6015 4.59113 16.6404 4.69C16.6404 4.69 16.6404 4.76 16.6404 4.79C16.6244 4.87457 16.594 4.95576 16.5504 5.03C16.5117 5.14311 16.5005 5.26384 16.5179 5.38213C16.5353 5.50042 16.5807 5.61283 16.6504 5.71C16.724 5.81046 16.8199 5.89259 16.9304 5.95C17.0335 6.078 17.1589 6.18639 17.3004 6.27L18.1404 6.73C18.2602 6.79385 18.3948 6.8249 18.5304 6.82C19.7604 6.76 20.8104 5.07 21.0904 4.47L21.1904 4.23C21.2644 4.02235 21.3689 3.82687 21.5004 3.65C21.8509 3.30275 22.2848 3.05138 22.7604 2.92C22.8689 2.97363 22.9896 2.99777 23.1104 2.99C23.174 2.98269 23.2384 2.98967 23.299 3.01043C23.3595 3.03119 23.4147 3.06521 23.4604 3.11C23.6778 3.46611 23.7495 3.89238 23.6604 4.3L23.3304 5.3L23.2404 5.72C23.1698 6.38483 22.94 7.02285 22.5704 7.58C22.4594 7.67849 22.3252 7.74729 22.1804 7.78C21.8907 7.86594 21.6194 8.00497 21.3804 8.19C21.1649 8.37839 20.9824 8.60146 20.8404 8.85C20.7841 8.95029 20.717 9.04418 20.6404 9.13C20.553 9.19933 20.4825 9.2875 20.434 9.38794C20.3855 9.48838 20.3604 9.59847 20.3604 9.71V9.88C20.3598 10.041 20.411 10.1979 20.5064 10.3276C20.6018 10.4573 20.7365 10.5528 20.8904 10.6L21.0804 10.66C21.1727 10.68 21.2682 10.68 21.3604 10.66C21.7136 10.6371 22.0562 10.5309 22.3604 10.35C22.4816 10.2896 22.609 10.2426 22.7404 10.21C22.957 10.233 23.1656 10.3048 23.3504 10.42C23.6515 11.4017 23.8788 12.4045 24.0304 13.42H23.4504C23.3782 13.4226 23.3071 13.4394 23.2414 13.4694C23.1756 13.4995 23.1165 13.5422 23.0672 13.5951C23.018 13.6481 22.9797 13.7102 22.9545 13.7779C22.9293 13.8457 22.9177 13.9178 22.9204 13.99L23.1204 16.86C23.1267 16.935 23.1478 17.0079 23.1824 17.0747C23.217 17.1415 23.2645 17.2008 23.3221 17.2491C23.3798 17.2974 23.4464 17.3339 23.5182 17.3564C23.59 17.3788 23.6655 17.3869 23.7404 17.38H24.3404V18C24.3904 23.19 23.1304 27.22 21.2404 30ZM47.1404 41.34C46.9658 41.3608 46.804 41.4423 46.6834 41.5702C46.5627 41.6982 46.4909 41.8645 46.4804 42.04C46.3604 44.15 46.1404 49.77 46.2704 52.78C46.3423 54.328 46.6388 55.8573 47.1504 57.32C47.4301 58.0285 47.589 58.7789 47.6204 59.54C47.6254 59.6099 47.6254 59.6801 47.6204 59.75H47.4804C46.7204 59.75 46.7104 60.58 46.7104 60.84C46.7104 61.26 46.7104 62.39 46.2204 62.64C45.223 63.0206 44.1396 63.1175 43.0904 62.92H42.1704C42.1591 62.815 42.1245 62.7138 42.0692 62.6238C42.0138 62.5339 41.9391 62.4574 41.8504 62.4C41.7076 62.2985 41.5331 62.2518 41.3587 62.2683C41.1843 62.2848 41.0216 62.3635 40.9004 62.49C40.5738 62.8053 40.3033 63.1739 40.1004 63.58C40.0004 63.81 39.9304 64.02 39.8604 64.21C39.6804 64.75 39.6804 64.75 39.1504 64.85C37.9216 65.0001 36.6792 65.0001 35.4504 64.85C35.8075 64.2059 36.2555 63.6165 36.7804 63.1C40.8504 61.46 39.6404 53.3 39.4904 52.37C39.3858 51.7952 39.2455 51.2274 39.0704 50.67C38.8313 50.0073 38.6899 49.3134 38.6504 48.61C38.5363 47.0793 38.1994 45.5734 37.6504 44.14C37.4404 43.45 37.2404 42.8 37.1304 42.3C37.1007 42.1208 37.0086 41.9579 36.8704 41.84C36.7905 41.7699 36.6965 41.7176 36.5948 41.6865C36.4931 41.6555 36.3859 41.6465 36.2804 41.66C33.8104 42.03 26.7304 38.66 24.1904 35.66C24.2639 35.4477 24.3011 35.2246 24.3004 35V32.05C24.3194 31.5944 24.1738 31.1472 23.8904 30.79C26.1504 28.17 27.2104 24 27.2104 17.7V17.28H27.7004C27.774 17.2774 27.8463 17.2604 27.9132 17.2298C27.9802 17.1993 28.0405 17.1558 28.0906 17.1019C28.1408 17.0481 28.1798 16.9848 28.2055 16.9159C28.2312 16.8469 28.2431 16.7736 28.2404 16.7L28.0004 13.81C27.9941 13.735 27.9731 13.6621 27.9384 13.5953C27.9038 13.5285 27.8563 13.4692 27.7987 13.4209C27.7411 13.3726 27.6744 13.3361 27.6026 13.3136C27.5308 13.2912 27.4553 13.2831 27.3804 13.29H26.7004C26.5704 12.68 26.4104 12.08 26.2404 11.49H26.3504C26.4823 11.5165 26.616 11.5332 26.7504 11.54H27.0004C27.1056 11.6079 27.2257 11.649 27.3504 11.66L27.9704 11.71H28.0804L32.3204 11.51C32.6826 12.0386 32.9155 12.6449 33.0004 13.28C33.0246 13.4621 33.1139 13.6292 33.2517 13.7506C33.3896 13.8719 33.5668 13.9392 33.7504 13.94H33.8304C34.028 13.9174 34.2085 13.8173 34.3323 13.6616C34.456 13.506 34.5129 13.3076 34.4904 13.11C34.42 12.527 34.2545 11.9594 34.0004 11.43H36.7004C36.8347 11.8479 36.935 12.276 37.0004 12.71C37.0225 12.8903 37.1101 13.0561 37.2466 13.176C37.383 13.2959 37.5588 13.3613 37.7404 13.36H37.8404C37.9384 13.3465 38.0327 13.3138 38.118 13.2637C38.2032 13.2136 38.2778 13.1471 38.3372 13.0681C38.3967 12.9891 38.44 12.8992 38.4646 12.8034C38.4891 12.7076 38.4945 12.6079 38.4804 12.51C38.4355 12.1489 38.3654 11.7913 38.2704 11.44H41.1204C41.1719 11.7713 41.2053 12.1051 41.2204 12.44C41.2282 12.6337 41.3106 12.8168 41.4504 12.951C41.5902 13.0853 41.7766 13.1602 41.9704 13.16C42.0663 13.1587 42.1609 13.1385 42.249 13.1006C42.3371 13.0627 42.4168 13.0079 42.4837 12.9391C42.5506 12.8704 42.6032 12.7892 42.6387 12.7001C42.6742 12.6111 42.6917 12.5159 42.6904 12.42C42.7028 12.0847 42.6759 11.7491 42.6104 11.42H46.6104C48.0704 11.42 49.5504 11.51 50.9804 11.58C52.9804 11.69 54.9804 11.8 57.0404 11.72C62.2951 11.6734 67.5406 11.2691 72.7404 10.51C75.2715 9.9692 77.828 9.55535 80.4004 9.27C81.5785 9.17521 82.7623 9.17521 83.9404 9.27C85.3302 9.40982 86.7306 9.40982 88.1204 9.27C90.1554 8.96862 92.2334 9.32751 94.0494 10.294C95.8654 11.2605 97.3238 12.7837 98.2104 14.64C98.8707 16.1416 99.2503 17.7516 99.3304 19.39C99.2363 19.3206 99.1263 19.2759 99.0104 19.26C98.816 19.2307 98.6178 19.2779 98.4574 19.3916C98.2971 19.5054 98.187 19.6768 98.1504 19.87C97.8573 21.4168 97.4324 22.9357 96.8804 24.41C95.1504 24.5 93.4104 24.56 91.7104 24.61C90.0104 24.66 88.2704 24.61 86.6004 24.52H85.7704C84.3204 24.45 82.7704 24.36 81.3304 24.36H68.9304L66.3004 24.48L62.8004 24.65H62.3304L62.0904 24.58C61.9462 24.5415 61.799 24.5147 61.6504 24.5H61.4904L60.4904 24.06H60.3604C60.1711 24.0371 59.9797 24.0371 59.7904 24.06H59.5704C59.3862 23.9897 59.2087 23.9027 59.0404 23.8C58.758 23.6301 58.4557 23.4958 58.1404 23.4C58.2715 23.3025 58.3892 23.1882 58.4904 23.06C59.0256 22.3335 59.3695 21.4842 59.4904 20.59L59.8904 19.22V19.1C59.9828 18.6724 59.9806 18.2297 59.8838 17.803C59.7871 17.3763 59.5982 16.976 59.3304 16.63C59.1925 16.4846 59.0342 16.3599 58.8604 16.26L58.7704 16.2H58.7004C58.5068 16.1147 58.3009 16.0607 58.0904 16.04H58.0004C57.9073 15.9778 57.801 15.9382 57.6899 15.9243C57.5788 15.9104 57.466 15.9227 57.3604 15.96L57.2204 16.01C56.4787 16.2248 55.795 16.6042 55.2204 17.12L55.1104 17.22C55.0504 17.29 55.0104 17.37 54.9604 17.44C54.8183 17.633 54.6976 17.8409 54.6004 18.06C54.6004 18.12 54.5404 18.18 54.5204 18.24L54.4304 18.44C54.1681 18.9912 53.7812 19.4739 53.3004 19.85L53.0004 19.61C53.0322 19.5304 53.0492 19.4457 53.0504 19.36C53.0551 19.2472 53.0362 19.1347 52.9949 19.0296C52.9535 18.9246 52.8907 18.8293 52.8104 18.75C52.8066 18.7201 52.8066 18.6899 52.8104 18.66C52.7318 18.4887 52.6381 18.3247 52.5304 18.17C52.4904 18.102 52.4435 18.0384 52.3904 17.98H52.3404C51.4824 17.3428 50.5018 16.89 49.4604 16.65C49.3764 16.6565 49.2947 16.6803 49.2204 16.72H49.1504L49.0204 16.81C48.9489 16.8531 48.8875 16.911 48.8404 16.98C48.6674 16.9649 48.4934 16.9649 48.3204 16.98H48.1604C47.9731 17.0003 47.7986 17.0853 47.6672 17.2204C47.5358 17.3555 47.4556 17.5322 47.4404 17.72C47.1696 17.9353 46.9305 18.1878 46.7304 18.47C46.5524 18.7395 46.4048 19.028 46.2904 19.33C46.2056 19.5717 46.0878 19.8005 45.9404 20.01C45.76 19.7561 45.5194 19.551 45.2401 19.4131C44.9608 19.2752 44.6517 19.2088 44.3404 19.22C44.1511 19.224 43.9646 19.2668 43.7926 19.346C43.6205 19.4251 43.4666 19.5388 43.3404 19.68C43.2624 19.772 43.1953 19.8727 43.1404 19.98C42.8629 20.6087 42.7362 21.2936 42.7704 21.98V22.77C42.6695 22.9138 42.5593 23.0507 42.4404 23.18C42.2488 23.3968 42.0781 23.6312 41.9304 23.88V24C41.7208 24.3918 41.5724 24.8133 41.4904 25.25C41.4995 25.4025 41.4791 25.5552 41.4304 25.7C41.4274 25.9047 41.3902 26.1075 41.3204 26.3C41.1077 26.6845 40.8224 27.0241 40.4804 27.3L40.0004 27.78C39.9581 27.8293 39.9213 27.8829 39.8904 27.94L39.5304 28.6L38.6904 29.54C38.5004 29.76 38.3404 29.99 38.1704 30.22C37.9488 30.5433 37.7048 30.8507 37.4404 31.14L37.3504 31.22C37.2004 31.35 36.9604 31.53 36.7304 31.69C35.9004 32.27 34.9604 32.92 34.8004 33.77V33.94C34.7831 34.2771 34.8202 34.6147 34.9104 34.94L34.9704 35.24C35.0331 35.7303 35.1575 36.2108 35.3404 36.67C35.4727 37.0023 35.6698 37.3048 35.9204 37.56C36.5057 38.0234 37.1902 38.3451 37.9204 38.5H38.0004C38.7451 38.7722 39.5404 38.878 40.3304 38.81C41.2704 38.68 48.0004 38.4 49.0204 38.81C49.2804 39.04 49.9204 39.5 51.2104 40.37L51.4004 40.51C51.4988 40.5762 51.5865 40.6572 51.6604 40.75L51.7104 40.81C51.8763 41.0293 52.0266 41.2598 52.1604 41.5C50.5039 41.2741 48.8293 41.2105 47.1604 41.31L47.1404 41.34ZM84.6004 57.17C84.4809 57.6435 84.437 58.1328 84.4704 58.62C84.5055 58.9123 84.5055 59.2077 84.4704 59.5C84.4646 59.7106 84.417 59.9179 84.3304 60.11L84.0004 60.21C83.3404 60.38 83.1104 61.04 82.8904 61.69C82.8013 61.9778 82.691 62.2585 82.5604 62.53C82.5604 60.53 82.6804 58.53 82.7504 57.12H84.7504L84.6504 57.17H84.6004ZM96.6604 60.17C96.3661 60.2984 96.1133 60.5061 95.9304 60.77C95.8797 60.8464 95.8425 60.931 95.8204 61.02C95.5904 62.02 94.9604 63.55 94.3704 63.75C93.041 64.1045 91.6558 64.1996 90.2904 64.03C90.6504 63.45 91.3604 62.52 91.7204 62.03C92.0804 61.54 92.2904 61.29 92.4204 61.09C92.5691 60.908 92.7444 60.7495 92.9404 60.62C93.1053 60.5294 93.2493 60.4052 93.3631 60.2553C93.4768 60.1054 93.5576 59.9332 93.6004 59.75C93.7804 58.92 93.9104 58.13 94.0104 57.35H96.1504C96.2225 57.8092 96.3467 58.2588 96.5204 58.69C96.6957 59.145 96.7575 59.6358 96.7004 60.12L96.6604 60.17ZM132.13 58C132.068 58.3403 131.978 58.6747 131.86 59C131.663 59.5349 131.536 60.0927 131.48 60.66V63.3C131.419 64.3469 131.292 65.3889 131.1 66.42C130.97 67.25 130.83 68.08 130.75 68.91H130.3V71.61H130.77C130.847 72.1483 130.988 72.6755 131.19 73.18C131.371 73.6372 131.436 74.1317 131.38 74.62C131.084 74.7446 130.83 74.9531 130.65 75.22C130.6 75.2964 130.562 75.381 130.54 75.47C130.31 76.47 129.69 78 129.09 78.2C127.761 78.5545 126.376 78.6496 125.01 78.48C125.37 77.9 126.09 76.97 126.44 76.48C126.79 75.99 127.05 75.68 127.12 75.57C127.276 75.3785 127.458 75.2101 127.66 75.07C127.827 74.9775 127.972 74.8515 128.087 74.7001C128.203 74.5486 128.285 74.375 128.33 74.19C128.42 73.72 128.51 73.25 128.59 72.81H129.66C129.843 72.81 130.019 72.7373 130.148 72.6079C130.278 72.4785 130.35 72.303 130.35 72.12V68.34C130.35 68.157 130.278 67.9815 130.148 67.8521C130.019 67.7227 129.843 67.65 129.66 67.65H128.93C128.74 64.16 127.58 61.71 126.24 58.88L125.84 58.04C125.798 57.9507 125.739 57.8706 125.666 57.8041C125.593 57.7377 125.508 57.6863 125.415 57.6529C125.322 57.6195 125.224 57.6047 125.125 57.6093C125.026 57.614 124.93 57.638 124.84 57.68C124.751 57.722 124.671 57.7812 124.605 57.8542C124.538 57.9272 124.487 58.0126 124.453 58.1054C124.42 58.1983 124.405 58.2968 124.41 58.3954C124.414 58.494 124.438 58.5907 124.48 58.68L124.58 58.89C123.599 60.4481 122.829 62.1294 122.29 63.89C122.17 64.23 122.06 64.57 121.93 64.89C121.64 65.79 121.24 66.7 120.82 67.66C120.218 68.9195 119.733 70.2317 119.37 71.58C119.251 72.0535 119.207 72.5428 119.24 73.03C119.276 73.3223 119.276 73.6177 119.24 73.91C119.237 74.1177 119.189 74.3222 119.1 74.51C118.985 74.5624 118.864 74.6026 118.74 74.63C118.07 74.79 117.84 75.46 117.62 76.11C117.477 76.6627 117.153 77.1517 116.7 77.5C115.435 77.7451 114.136 77.7755 112.86 77.59C113.365 76.5116 114.007 75.5032 114.77 74.59L115.49 73.82C116.571 72.848 117.361 71.5947 117.77 70.2C118.334 68.3501 118.647 66.433 118.7 64.5C118.77 62.92 118.77 61.43 118.77 59.85V58.21C118.775 58.1601 118.775 58.1099 118.77 58.06V57.78C118.64 56.99 118.58 56.56 118.22 56.31C117.917 56.1048 117.551 56.0115 117.186 56.0462C116.821 56.0809 116.48 56.2413 116.22 56.5C116.143 56.5866 116.085 56.689 116.05 56.8L115.99 56.55C115.92 56.3963 115.808 56.2658 115.666 56.1737C115.524 56.0817 115.359 56.0318 115.19 56.03C114.887 55.9705 114.573 56.0054 114.29 56.13C114.196 56.1799 114.113 56.2494 114.047 56.3339C113.982 56.4184 113.935 56.516 113.91 56.62C113.889 56.7929 113.852 56.9635 113.8 57.13L113.72 57.51C113.734 57.175 113.767 56.841 113.82 56.51C113.854 56.3318 113.822 56.1475 113.73 55.9913C113.638 55.835 113.492 55.7173 113.32 55.66C112.098 55.3507 110.992 54.6902 110.14 53.76C110.02 53.5983 109.84 53.4906 109.64 53.46C109.443 53.4312 109.241 53.4815 109.08 53.6C107.8 54.6 105.33 54.93 103.53 55.19L102.1 55.41C100.322 55.7096 98.5234 55.8667 96.7204 55.88H94.0604H92.7004C91.2704 55.88 89.8004 55.79 88.3804 55.69C87.4904 55.62 86.5804 55.56 85.6704 55.53H83.3404C82.8914 55.5124 82.4418 55.5459 82.0004 55.63H81.9004C81.7258 55.6508 81.564 55.7323 81.4434 55.8602C81.3227 55.9882 81.2509 56.1545 81.2404 56.33C81.1204 58.43 80.9104 64.06 81.0404 67.07C81.1042 68.618 81.3974 70.148 81.9104 71.61C82.1901 72.3185 82.349 73.0689 82.3804 73.83C82.3849 73.8999 82.3849 73.9701 82.3804 74.04H82.2404C81.4804 74.04 81.4704 74.86 81.4704 75.13C81.4704 75.55 81.4704 76.67 80.9804 76.93C79.9828 77.3101 78.8996 77.407 77.8504 77.21H77.4304H76.9304C76.9199 77.1034 76.8856 77.0005 76.8303 76.9088C76.7749 76.8172 76.6998 76.739 76.6104 76.68C76.4613 76.5709 76.2775 76.5198 76.0934 76.5364C75.9094 76.5529 75.7377 76.636 75.6104 76.77C75.2854 77.0867 75.0151 77.455 74.8104 77.86C74.7104 78.1 74.6404 78.31 74.5704 78.5C74.3904 79.04 74.3904 79.04 73.8604 79.13C72.6317 79.2802 71.3892 79.2802 70.1604 79.13C70.5203 78.4847 70.9679 77.8924 71.4904 77.37C75.5704 75.74 74.3504 67.58 74.2004 66.65C74.0958 66.0752 73.9555 65.5074 73.7804 64.95C73.5413 64.2873 73.3999 63.5934 73.3604 62.89C73.2452 61.3562 72.9084 59.8472 72.3604 58.41C72.1504 57.72 71.9504 57.07 71.8404 56.58C71.8103 56.4032 71.7224 56.2414 71.5904 56.12C71.5096 56.0479 71.4141 55.9945 71.3104 55.9634C71.2067 55.9323 71.0975 55.9243 70.9904 55.94C68.2904 56.33 60.2104 52.3 58.3604 49.18C58.1604 48.7 57.4904 47.32 56.8604 46.05L56.6204 45.57C56.1428 44.7739 55.601 44.018 55.0004 43.31C54.6353 42.8669 54.3012 42.3991 54.0004 41.91L53.8904 41.72C53.7804 41.53 53.6704 41.31 53.5504 41.09C53.2255 40.2882 52.7188 39.5728 52.0704 39L51.8704 38.86C51.1685 38.4347 50.4999 37.9567 49.8704 37.43C48.8704 36.34 40.0204 37.07 39.9504 37.08C39.3856 37.115 38.8198 37.0298 38.2904 36.83H38.1804C37.2704 36.55 36.8604 36.42 36.6204 35.98C36.4495 35.5965 36.3414 35.1879 36.3004 34.77C36.2874 34.6343 36.2606 34.5003 36.2204 34.37C36.164 34.1854 36.137 33.993 36.1404 33.8C36.1419 33.7767 36.1419 33.7533 36.1404 33.73C36.156 33.6859 36.1797 33.6452 36.2104 33.61C36.4869 33.3261 36.7918 33.0715 37.1204 32.85L37.4404 32.63C37.7766 32.4101 38.0913 32.1589 38.3804 31.88C38.6911 31.5433 38.9784 31.1858 39.2404 30.81L39.6704 30.22L40.1204 29.74L40.5604 29.25C40.6026 29.2043 40.6395 29.154 40.6704 29.1L41.0104 28.44L41.3704 28.1C41.8503 27.6874 42.2444 27.1846 42.5304 26.62C42.651 26.2489 42.7084 25.8601 42.7004 25.47V25.12C42.7575 24.8187 42.8621 24.5284 43.0104 24.26C43.1162 24.1076 43.2296 23.9608 43.3504 23.82C43.6374 23.5361 43.8622 23.1955 44.0104 22.82C44.0202 22.747 44.0202 22.673 44.0104 22.6V21.79C43.9793 21.3292 44.0405 20.8668 44.1904 20.43C44.2704 20.43 44.3504 20.49 44.5604 20.73C44.7168 20.9672 44.944 21.149 45.2098 21.2496C45.4755 21.3501 45.7662 21.3643 46.0404 21.29C46.3768 21.1316 46.6756 20.9035 46.917 20.6207C47.1583 20.3379 47.3368 20.007 47.4404 19.65C47.5138 19.4445 47.6076 19.2468 47.7204 19.06C47.8789 18.85 48.0676 18.6646 48.2804 18.51L48.6104 18.23H49.2904C49.4709 18.2218 49.6419 18.147 49.7704 18.02L50.1704 18.21C50.4868 18.3479 50.7911 18.5118 51.0804 18.7C51.1412 18.7872 51.1915 18.8811 51.2304 18.98V19.07C51.216 19.1581 51.1855 19.2429 51.1404 19.32C51.1017 19.4331 51.0905 19.5538 51.1079 19.6721C51.1253 19.7904 51.1708 19.9028 51.2404 20C51.3141 20.0978 51.4101 20.1767 51.5204 20.23C51.6236 20.358 51.7489 20.4664 51.8904 20.55L52.7304 21.01L52.9104 21.07C52.9767 21.0803 53.0441 21.0803 53.1104 21.07C54.3404 21.01 55.4004 19.32 55.6704 18.72L55.7704 18.48C55.8441 18.2702 55.9522 18.0742 56.0904 17.9C56.4376 17.5513 56.8677 17.2966 57.3404 17.16C57.4466 17.2206 57.5684 17.2484 57.6904 17.24C57.754 17.2334 57.8182 17.2407 57.8786 17.2614C57.9391 17.2821 57.9943 17.3158 58.0404 17.36C58.2607 17.7113 58.3359 18.1343 58.2504 18.54L57.9104 19.54L57.8204 19.97C57.753 20.6294 57.5227 21.2617 57.1504 21.81C57.0904 21.89 56.9904 21.93 56.7604 22.02C56.4707 22.1059 56.1994 22.245 55.9604 22.43C55.7478 22.6211 55.5657 22.8437 55.4204 23.09L55.3504 23.2V23.26L55.2604 23.37C55.1717 23.4398 55.1 23.5286 55.0504 23.63C54.9995 23.7463 54.9822 23.8744 55.0004 24V24.17C55.002 24.3264 55.0518 24.4786 55.1431 24.6057C55.2344 24.7327 55.3627 24.8285 55.5104 24.88L55.7304 24.95C55.8194 24.9695 55.9115 24.9695 56.0004 24.95C56.3536 24.9271 56.6962 24.8209 57.0004 24.64C57.1196 24.5752 57.2476 24.528 57.3804 24.5C57.668 24.5315 57.943 24.6347 58.1804 24.8C58.4332 24.9541 58.7013 25.0815 58.9804 25.18C59.2049 25.2422 59.4377 25.2692 59.6704 25.26H59.8404L60.8404 25.7H60.9704C61.1002 25.7104 61.2306 25.7104 61.3604 25.7H61.5904C61.6748 25.7448 61.766 25.7752 61.8604 25.79H62.6604L68.8504 25.5H81.2504C82.7004 25.5 84.1804 25.58 85.6204 25.66C87.0604 25.74 88.3604 25.81 89.7604 25.82H91.6704C96.9252 25.7741 102.171 25.3698 107.37 24.61L107.7 24.55C109.89 24.13 112.15 23.7 114.37 23.41C115.744 23.2847 117.127 23.2847 118.5 23.41C119.676 23.4852 120.855 23.4852 122.03 23.41C124.79 23.22 126.24 23.26 128.57 24.41C132.44 26.41 133.69 29.7 133.97 33.41C133.876 33.3406 133.766 33.2959 133.65 33.28C133.457 33.2482 133.259 33.2946 133.099 33.409C132.94 33.5234 132.832 33.6964 132.8 33.89C132.329 36.1217 131.66 38.307 130.8 40.42C129.921 42.4949 129.251 44.6522 128.8 46.86C128.478 48.3739 128.508 49.9419 128.89 51.4421C129.271 52.9422 129.994 54.3343 131 55.51C131.051 55.5735 131.111 55.6276 131.18 55.67L131.43 56.08C131.703 56.3121 131.911 56.6111 132.034 56.9476C132.157 57.2841 132.19 57.6468 132.13 58ZM134.13 55.77C133.901 56.3866 133.744 57.0275 133.66 57.68C133.622 56.9105 133.35 56.171 132.88 55.56C132.758 55.3792 132.644 55.1923 132.54 55C132.472 54.8666 132.364 54.758 132.23 54.69C131.429 53.7017 130.857 52.5472 130.558 51.3103C130.259 50.0735 130.239 48.7854 130.5 47.54C130.928 45.4344 131.558 43.3749 132.38 41.39C132.5 41.07 132.61 40.75 132.73 40.39C132.732 42.4674 132.839 44.5434 133.05 46.61C133.233 48.3707 133.601 50.1071 134.15 51.79C134.403 52.4593 134.545 53.1652 134.57 53.88C134.505 54.5099 134.357 55.1286 134.13 55.72V55.77ZM136 59.32L135.83 59.79C135.7 60.14 135.58 60.46 135.48 60.79C135.436 60.0281 135.342 59.2699 135.2 58.52C135.12 57.7286 135.244 56.9299 135.56 56.2C135.68 55.84 135.8 55.48 135.9 55.1C136.383 56.4601 136.418 57.9386 136 59.32Z" fill="black"/>
<path d="M134 66.42C133.856 66.5393 133.762 66.708 133.737 66.8929C133.711 67.0779 133.755 67.2658 133.86 67.42C134.447 68.1976 134.765 69.1455 134.765 70.12C134.765 71.0945 134.447 72.0424 133.86 72.82C133.78 72.933 133.732 73.0659 133.722 73.2042C133.712 73.3424 133.739 73.4809 133.802 73.6045C133.865 73.728 133.96 73.8321 134.078 73.9053C134.196 73.9786 134.331 74.0182 134.47 74.02C134.588 74.0196 134.703 73.9913 134.808 73.9374C134.912 73.8835 135.002 73.8056 135.07 73.71C135.839 72.6639 136.248 71.3966 136.235 70.0983C136.223 68.8001 135.789 67.541 135 66.51C134.874 66.374 134.702 66.2896 134.517 66.273C134.333 66.2564 134.148 66.3087 134 66.42Z" fill="black"/>
<path d="M142.12 61.11C141.989 60.9608 141.805 60.8688 141.607 60.8538C141.408 60.8389 141.212 60.9021 141.06 61.03C140.985 61.0942 140.924 61.1726 140.879 61.2607C140.834 61.3488 140.807 61.4449 140.8 61.5434C140.793 61.6419 140.805 61.7409 140.836 61.8347C140.867 61.9285 140.916 62.0152 140.98 62.09C142.795 64.4076 143.781 67.2664 143.781 70.21C143.781 73.1536 142.795 76.0124 140.98 78.33C140.889 78.4391 140.831 78.5718 140.813 78.7126C140.794 78.8534 140.816 78.9965 140.876 79.1254C140.936 79.2542 141.031 79.3635 141.15 79.4404C141.269 79.5173 141.408 79.5588 141.55 79.56C141.658 79.5597 141.765 79.5363 141.863 79.4915C141.962 79.4466 142.049 79.3814 142.12 79.3C144.167 76.7101 145.28 73.5058 145.28 70.205C145.28 66.9042 144.167 63.6999 142.12 61.11Z" fill="black"/>
<path d="M137.7 64C137.547 64.1121 137.444 64.2791 137.413 64.4657C137.381 64.6522 137.423 64.8438 137.53 65C138.566 66.5307 139.12 68.3366 139.12 70.185C139.12 72.0334 138.566 73.8393 137.53 75.37C137.423 75.5262 137.381 75.7178 137.413 75.9044C137.444 76.0909 137.547 76.2579 137.7 76.37C137.827 76.4637 137.982 76.5129 138.14 76.51C138.258 76.5088 138.375 76.4803 138.481 76.4265C138.587 76.3727 138.679 76.2952 138.75 76.2C139.968 74.4177 140.62 72.309 140.62 70.15C140.62 67.991 139.968 65.8823 138.75 64.1C138.623 63.9485 138.442 63.853 138.245 63.8342C138.049 63.8155 137.853 63.8751 137.7 64Z" fill="black"/>
</g>
<defs>
<clipPath id="clip0_129_62">
<rect width="145.28" height="80.69" fill="white"/>
</clipPath>
</defs>
</svg>
