<svg width="92" height="70" viewBox="0 0 92 70" fill="none" xmlns="http://www.w3.org/2000/svg">
<path d="M43.907 39.7077H72.686M43.907 47.5538H58.0349M61.1744 47.5538H67.4535M82.1047 36.0462V61.6769M82.1047 61.6769H90.4788C90.7667 61.6769 91 61.9103 91 62.1981V66.0779C91 66.2672 90.8974 66.4416 90.7319 66.5335L86.4087 68.9345C86.3313 68.9774 86.2442 69 86.1557 69H6.86867C6.79429 69 6.72078 68.9841 6.65307 68.9533L1.30557 66.5235C1.11948 66.4389 1 66.2534 1 66.049V62.1981C1 61.9103 1.23334 61.6769 1.52117 61.6769H8.84884M82.1047 61.6769H8.84884M8.84884 61.6769V30.2923M8.84884 30.2923C6.40698 29.7692 1.62791 27.5723 2.04651 22.9692M8.84884 30.2923C13.2745 31.3983 16.6712 27.984 18.2517 25.4866C18.4861 25.1162 19.0819 25.1231 19.3206 25.4908C20.6265 27.5017 23.5677 30.2923 28.2093 30.2923C32.5656 30.2923 34.9771 27.8341 36.0342 25.8695C36.2654 25.4399 37.028 25.3837 37.3088 25.7827C38.7009 27.7609 41.5792 30.2923 46 30.2923C50.5326 30.2923 52.9598 27.6312 53.9467 25.6336C54.1471 25.228 54.778 25.1385 55.0609 25.4915C56.6724 27.5023 59.8637 30.2923 63.7907 30.2923C67.6314 30.2923 70.5257 27.6236 71.9876 25.6251C72.2646 25.2464 72.9567 25.3178 73.1824 25.7292C74.2672 27.7066 76.935 30.2705 82.0395 30.2922C82.0821 30.2924 82.1268 30.2868 82.168 30.2764C88.8107 28.5938 90.1274 24.7073 89.9535 22.9692M2.04651 22.9692C2.46512 18.3662 6.75581 11.1128 8.84884 8.32308M2.04651 22.9692H18.7907M8.84884 8.32308V1.52117C8.84884 1.23334 9.08218 1 9.37001 1H80.537C80.8248 1 81.0581 1.23334 81.0581 1.52117V8.32308M8.84884 8.32308H19.8372M81.0581 8.32308L89.9535 22.9692M81.0581 8.32308H71.6395M89.9535 22.9692H72.686M18.7907 22.9692L19.8372 8.32308M18.7907 22.9692H36.5814M19.8372 8.32308H37.1047M36.5814 22.9692L37.1047 8.32308M36.5814 22.9692H54.3721M37.1047 8.32308H54.3721M54.3721 22.9692V8.32308M54.3721 22.9692H72.686M54.3721 8.32308H71.6395M71.6395 8.32308L72.686 22.9692M22.4514 52.2615H35.537C35.8248 52.2615 36.0581 52.0282 36.0581 51.7404V38.6596C36.0581 38.3718 35.8248 38.1385 35.537 38.1385H22.4514C22.1636 38.1385 21.9302 38.3718 21.9302 38.6596V51.7404C21.9302 52.0282 22.1636 52.2615 22.4514 52.2615Z" stroke="#111827" stroke-width="1.91228"/>
</svg>
