<svg width="132" height="75" viewBox="0 0 132 75" fill="none" xmlns="http://www.w3.org/2000/svg">
<path fill-rule="evenodd" clip-rule="evenodd" d="M6.58163 0H124.916C128.536 0 131.497 2.96165 131.497 6.58167V68.4184C131.497 72.0385 128.536 75 124.916 75H6.58163C2.96154 75 0 72.0385 0 68.4184V6.58167C0 2.96165 2.96154 0 6.58163 0Z" fill="black"/>
<path d="M23.7769 45.1133L23.6398 44.4089H22.5853L22.4415 45.1133H21.2637L22.3935 40.4031H23.8521L24.982 45.1133H23.7769ZM22.7702 43.4992H23.455L23.1193 41.8043L22.7702 43.4992ZM27.3925 45.1133H26.194V43.5873L24.982 40.4031H26.2078L26.7829 42.3914L27.3171 40.4031H28.536L27.3925 43.5726V45.1133ZM30.6383 40.4031H31.8365V44.2036C31.8365 44.81 31.5009 45.1133 30.8299 45.1133H29.8165C29.1454 45.1133 28.81 44.81 28.81 44.2036V40.4031H30.0083V44.0348C30.0083 44.1424 30.0653 44.1963 30.1795 44.1963H30.4671C30.5811 44.1963 30.6383 44.1424 30.6383 44.0348V40.4031ZM34.069 44.0348V43.3671C34.069 43.2595 34.0119 43.2057 33.8978 43.2057H33.2404C32.9025 43.2057 32.664 43.1262 32.5247 42.9672C32.3856 42.8084 32.316 42.5797 32.316 42.2813V41.3129C32.316 40.7063 32.6492 40.4031 33.3158 40.4031H34.2538C34.9204 40.4031 35.2536 40.7063 35.2536 41.3129V41.8779H34.0553V41.4816C34.0553 41.374 33.9981 41.3202 33.8841 41.3202H33.6855C33.5714 41.3202 33.5143 41.374 33.5143 41.4816V42.1785C33.5143 42.2862 33.5714 42.34 33.6855 42.34H34.3292C34.6669 42.34 34.9078 42.4157 35.0516 42.5674C35.1954 42.719 35.2673 42.9415 35.2673 43.2352V44.2036C35.2673 44.81 34.9341 45.1133 34.2675 45.1133H33.3362C32.6652 45.1133 32.3297 44.81 32.3297 44.2036V43.6386H33.528V44.0348C33.528 44.1424 33.585 44.1963 33.6992 44.1963H33.8978C34.0119 44.1963 34.069 44.1424 34.069 44.0348ZM37.7873 40.4031H38.9651V45.1133H37.7873V43.2498H36.9244V45.1133H35.7467V40.4031H36.9244V42.3326H37.7873V40.4031ZM40.5812 45.1133H39.5128V40.4031H40.8208L41.5329 42.9196L42.2451 40.4031H43.5531V45.1133H42.4916V42.1199L41.9438 44.0935H41.1222L40.5812 42.1345V45.1133ZM46.3401 45.1133L46.2032 44.4089H45.1485L45.0047 45.1133H43.827L44.9569 40.4031H46.4155L47.5453 45.1133H46.3401ZM45.3336 43.4992H46.0181L45.6827 41.8043L45.3336 43.4992ZM49.8257 40.4031H50.9213V45.1133H49.8941L48.9148 42.6408V45.1133H47.8193V40.4031H48.8464L49.8257 42.9196V40.4031Z" fill="#65A04F"/>
<path fill-rule="evenodd" clip-rule="evenodd" d="M0.683017 64.3201H71.504C71.8798 64.3201 72.1869 64.6247 72.1869 64.9969C72.1869 65.3693 71.8798 65.6738 71.504 65.6738H0.683017C0.307308 65.6738 0 65.3693 0 64.9969C0 64.6247 0.307308 64.3201 0.683017 64.3201Z" fill="#373435"/>
<path fill-rule="evenodd" clip-rule="evenodd" d="M0.682885 36.8376H71.5038C71.8796 36.8376 72.1869 37.1421 72.1869 37.5145C72.1869 37.8867 71.8796 38.1914 71.5038 38.1914H0.682885C0.307111 38.1914 0 37.8867 0 37.5145C0 37.1421 0.307111 36.8376 0.682885 36.8376Z" fill="#373435"/>
<path fill-rule="evenodd" clip-rule="evenodd" d="M39.8706 27.0895C39.5601 27.3891 35.7247 33.4677 36.2151 34.8426C36.7319 36.2905 37.2157 34.6056 37.5389 36.7401C36.0462 36.7401 35.2429 37.2186 35.0997 35.8276C35.0071 35.0809 34.4768 35.3348 34.8663 33.6745L36.7891 26.4327C33.5817 26.3927 31.5843 26.8828 30.2913 26.8188C28.7196 26.7407 26.9154 25.789 26.3502 26.9483C25.9158 27.8396 26.6671 27.4472 25.9666 28.4243C24.9252 28.164 25.8091 28.4541 25.055 27.3563C24.6564 27.7545 24.8408 27.4977 24.7475 28.8203C22.9634 28.3543 24.5341 28.1867 23.4593 27.5572C22.9242 28.9101 24.2459 31.4978 24.8521 32.3839C25.3094 33.0527 25.9141 33.5479 26.4969 34.0219C28.0946 35.3213 26.9377 35.143 27.9998 35.677C28.2341 36.2097 28.202 36.2796 28.5953 36.6824L26.3718 36.7506L25.8308 35.5898L25.0197 35.5493C24.8705 35.212 25.0217 35.4887 24.8183 35.106C24.7892 35.0515 24.673 34.8405 24.6406 34.7843L24.4283 34.4481C22.3679 31.4885 24.2664 33.6424 21.8782 31.6549C21.0751 30.9865 21.3436 31.1933 20.966 29.9228C20.7524 29.2041 20.4252 28.4138 20.1781 27.8719C18.8999 29.7278 17.0204 31.6298 17.6881 34.4417C18.254 36.8256 18.6637 36.346 19.3025 36.3703C19.133 36.4665 19.4067 36.4335 18.7512 36.6233C18.3609 36.7362 18.3886 36.7155 17.9678 36.7452C17.3986 36.7857 17.0429 36.7525 16.435 36.8359C16.2481 36.1949 16.3133 35.8547 16.2046 35.3311C16.0139 34.4125 15.6322 35.2579 15.992 33.5719L16.1478 31.6328L15.2928 33.6182C14.8016 32.9397 14.9883 32.9487 15.0205 31.9197C15.049 31.015 15.0245 30.6077 15.1887 29.8832C15.5185 28.4325 15.2999 19.9098 15.3459 17.7395C15.545 8.34867 25.4456 14.0633 36.2446 12.6692C38.8377 12.3343 37.5704 12.0029 39.1308 11.3196C42.1034 10.0182 42.095 13.6703 45.2699 12.2986C45.5318 12.1853 47.5707 10.7725 47.6662 10.6776C48.9397 9.41328 46.7811 10.4571 49.2029 8.46754L49.009 6.53839C49.7896 6.91172 49.9146 7.57133 49.8627 8.76738C50.6179 8.79946 51.5029 9.15942 51.9655 8.94478C52.6761 8.61511 52.3802 8.4119 52.6114 7.51391L52.9268 6.73C53.3579 8.56164 53.1019 8.80844 52.3718 10.1952C53.5167 10.504 53.1685 10.2486 53.7346 10.9538C54.4002 11.783 56.2097 13.1028 57.215 13.7003C57.2796 14.9172 57.1628 15.0563 56.8684 15.9208C55.6572 16.0967 55.4042 16.2824 54.4165 16.5205C52.5244 16.9769 53.3423 16.8553 51.1056 18.3025C49.5245 19.3255 50.291 18.3705 49.7992 19.3375L49.4716 19.9754C49.3859 19.9926 49.2944 20.0149 49.1995 20.0421C48.1386 20.3468 47.9393 20.5649 47.5566 21.7829C46.9251 23.7927 47.2889 22.4159 46.5134 23.6423C46.2123 24.1184 45.9005 25.2833 45.6509 25.6534C45.1255 26.4321 44.758 26.1251 44.0434 26.7498C48.1945 30.4382 45.8997 30.5346 43.4703 33.8084C41.7612 36.1113 41.2701 34.7155 41.3744 36.1774C41.5932 36.9653 40.3055 36.5519 39.9329 36.4279C39.9329 36.3088 38.9347 36.6738 39.8515 35.6545C40.0626 33.5556 40.5874 34.7993 41.3887 33.3753C41.566 33.0601 41.1724 33.3983 41.7299 32.9181C42.8181 31.981 45.2001 30.4152 42.3293 28.795C40.9897 28.039 40.9329 28.1541 39.8706 27.0895ZM16.6271 20.0569L16.4766 18.5449L16.1491 20.5748C16.3477 23.8652 15.9179 27.349 16.0448 30.2114L16.7716 25.5064C17.1123 23.9166 16.6403 21.7793 16.6271 20.0569Z" fill="#65A04F"/>
<path fill-rule="evenodd" clip-rule="evenodd" d="M45.8037 13.9336L47.2707 13.2442L46.849 12.1025L45.3066 12.8405L45.8037 13.9336Z" fill="#FEC32B"/>
<path fill-rule="evenodd" clip-rule="evenodd" d="M46.3877 15.3672L47.8547 14.6782L47.4332 13.5363L45.8906 14.2741L46.3877 15.3672Z" fill="#FEC32B"/>
<path fill-rule="evenodd" clip-rule="evenodd" d="M46.9738 16.8027L48.441 16.1137L48.0193 14.9719L46.4766 15.7098L46.9738 16.8027Z" fill="#FEC32B"/>
<path fill-rule="evenodd" clip-rule="evenodd" d="M47.5576 18.2363L49.0248 17.5473L48.6031 16.4054L47.0605 17.1432L47.5576 18.2363Z" fill="#FEC32B"/>
<path fill-rule="evenodd" clip-rule="evenodd" d="M48.1436 19.6719L49.6108 18.9828L49.1891 17.8411L47.6465 18.5789L48.1436 19.6719Z" fill="#FEC32B"/>
<path fill-rule="evenodd" clip-rule="evenodd" d="M43.955 3.50292C43.8899 3.53064 43.7986 3.55729 43.7279 3.55392C43.6859 3.59459 43.4894 3.63847 43.4161 3.66413C43.3274 3.69529 43.1942 3.75508 43.1033 3.77459C43.0645 3.80892 42.9297 3.86685 42.8646 3.87055C42.8208 3.92367 42.6357 3.99411 42.5611 4.03386C42.4707 4.08188 42.3346 4.16969 42.2538 4.19668L41.6348 4.63072C41.6022 4.65586 41.5645 4.6853 41.5365 4.70739L41.4651 4.76645C41.4355 4.78411 41.4565 4.77605 41.4282 4.78074C41.4034 4.82777 41.0683 5.11953 40.9978 5.19004C40.9617 5.22602 40.8888 5.29918 40.8574 5.34753C40.8919 5.40772 41.1629 5.68132 41.23 5.75573C41.2889 5.82115 41.3527 5.88942 41.4138 5.95259C41.4726 6.01357 41.5459 6.10821 41.611 6.15643C41.658 6.12924 41.6616 6.11556 41.7031 6.09228C41.7084 6.06079 41.6912 6.07275 41.7284 6.06805C41.7602 6.00581 41.9101 5.85229 41.9878 5.82093C42.0253 5.72813 42.6947 5.25508 42.8239 5.20296C42.8688 5.15837 43.0396 5.07824 43.0994 5.04656C43.2006 4.99238 43.2936 4.94425 43.4067 4.9084C43.4541 4.86885 43.8326 4.72952 43.8989 4.73157C43.9155 4.71808 43.8897 4.73107 43.9292 4.71268L44.2551 4.62846C44.274 4.60915 44.3922 4.59095 44.4405 4.59604C44.5081 4.54518 44.7437 4.53452 44.8491 4.52757C45.0618 4.49853 45.7654 4.47323 45.9413 4.53508L46.2134 4.57093L46.4879 4.62265C46.5061 4.62662 46.5178 4.62792 46.5351 4.63427L46.5665 4.64982C46.5691 4.65114 46.5735 4.65381 46.5766 4.65579C46.6388 4.65116 46.748 4.68593 46.7808 4.70525C46.8428 4.71537 47.3033 4.85675 47.366 4.92818C47.433 4.92752 47.8681 5.15228 47.9209 5.20235C48.0903 5.27174 48.7049 5.71174 48.7778 5.83967C48.8228 5.84919 48.7977 5.83966 48.8378 5.87584C48.8613 5.89721 48.8727 5.90714 48.8916 5.92441C48.9251 5.95477 48.9687 5.99621 48.9835 6.032C49.0317 6.05733 49.0394 6.06107 49.0624 6.11319L49.1322 6.1582L49.8944 5.35104C49.8477 5.27359 49.5691 5.0141 49.4773 4.93327C49.4515 4.91078 49.3523 4.83353 49.339 4.80012L48.6949 4.33326C48.6301 4.29106 48.5009 4.22511 48.4664 4.17577C48.4169 4.17511 48.2718 4.08275 48.2198 4.05239C48.1699 4.02315 48.0012 3.94572 47.974 3.92171C47.9249 3.90669 47.5956 3.77831 47.548 3.72618C47.5247 3.7328 47.1143 3.59905 47.0832 3.57895L46.7808 3.50393C46.4429 3.4155 46.1012 3.37237 45.7399 3.34459L45.373 3.33405L45.1551 3.32658C45.0983 3.36785 44.9243 3.35246 44.8453 3.3596C44.7357 3.36972 44.6455 3.37738 44.5413 3.39352C44.3397 3.4248 44.1475 3.47309 43.955 3.50292Z" fill="#FEC32B"/>
<path fill-rule="evenodd" clip-rule="evenodd" d="M44.8104 5.46257C44.7521 5.48374 44.6113 5.50121 44.53 5.51675C44.4248 5.53646 44.3291 5.56509 44.2375 5.58163L44.0185 5.64497L43.9446 5.68098C43.7379 5.75242 43.5073 5.88271 43.38 5.92584C43.3637 5.9519 43.1764 6.05114 43.1295 6.07978C43.0721 6.11471 42.9058 6.24368 42.8721 6.24163C42.8274 6.31023 42.3433 6.64757 42.2344 6.83357C42.335 6.92803 42.9478 7.61036 42.9983 7.63867C43.0348 7.61598 43.1387 7.5042 43.1878 7.45994C43.2514 7.4026 43.3238 7.32158 43.4023 7.2901L43.4833 7.21642C43.6288 7.1131 44.0963 6.81215 44.2256 6.82174C44.2391 6.80864 44.2343 6.81199 44.2553 6.79962C44.2733 6.7889 44.2783 6.78719 44.2956 6.78044L44.5337 6.70979C44.6811 6.61262 45.4228 6.57554 45.6424 6.60385C45.7521 6.61119 45.855 6.62671 45.9563 6.64431C46.0277 6.65687 46.1888 6.67846 46.2437 6.72913C46.3125 6.71411 46.434 6.76754 46.4909 6.80075C46.6286 6.83918 47.2597 7.14295 47.3706 7.30851C47.3987 7.31545 47.3673 7.30253 47.3955 7.3186C47.4754 7.3647 47.703 7.60907 47.7491 7.63831C47.8093 7.60735 48.4033 6.94303 48.5132 6.83369C48.4258 6.67507 47.9527 6.32901 47.9329 6.28754L47.4162 5.96088C47.4032 5.95361 47.3931 5.94965 47.3798 5.94066L47.3379 5.90295C47.2815 5.90242 47.1356 5.81976 47.0702 5.78821C46.9946 5.7519 46.8289 5.69731 46.7929 5.67085L46.4127 5.55046L45.9816 5.46964C45.6654 5.44569 45.4057 5.42149 45.0767 5.43895L44.8104 5.46257Z" fill="#FEC32B"/>
<path fill-rule="evenodd" clip-rule="evenodd" d="M44.5279 7.67498C44.5032 7.69151 44.2825 7.79402 44.2418 7.80639L43.9141 8.02694C43.8505 8.07397 43.6471 8.25322 43.6191 8.30276C43.6439 8.35449 43.9315 8.64977 43.9887 8.71036L44.3671 9.12305C44.4336 9.09004 44.6215 8.86825 44.815 8.81646C44.8682 8.76361 45.147 8.68523 45.251 8.70197C45.3331 8.6427 45.5451 8.69258 45.6421 8.71097C45.7045 8.72274 45.7658 8.73959 45.8207 8.76063C45.8515 8.7724 45.8755 8.78221 45.9042 8.7951C45.9147 8.8004 45.9317 8.80843 45.9432 8.8163C45.9627 8.82979 45.9557 8.82494 45.9678 8.83883C46.0065 8.84081 45.9724 8.83093 46.0281 8.85732C46.177 8.92875 46.3147 9.09024 46.3801 9.12305C46.4999 8.96403 47.0847 8.39669 47.128 8.30276C47.0817 8.21816 46.7764 7.98062 46.6728 7.91103C46.618 7.87446 46.552 7.84317 46.5042 7.80659C46.4166 7.77808 46.3183 7.71771 46.2235 7.68192C46.1395 7.65004 45.9861 7.61068 45.9349 7.58442L45.6569 7.53719L45.5573 7.52891C45.4053 7.50979 45.2434 7.52297 45.0897 7.53832C44.879 7.55611 44.7168 7.62848 44.5279 7.67498Z" fill="#FEC32B"/>
<path fill-rule="evenodd" clip-rule="evenodd" d="M45.0758 9.5274C45.0639 9.54975 45.0129 9.58553 44.9925 9.60709C44.9548 9.64665 44.9486 9.67065 44.9175 9.68719C44.8858 9.79269 44.8344 9.84807 44.8303 9.99882C44.827 10.1134 44.8607 10.2388 44.9053 10.3183C44.9891 10.4679 45.1462 10.5941 45.372 10.6035C45.6006 10.5982 45.7464 10.4743 45.8353 10.3277C45.8771 10.2592 45.9193 10.1359 45.9195 10.0297C45.9195 9.8914 45.8526 9.77866 45.8533 9.72502C45.8012 9.68169 45.7652 9.6118 45.7087 9.56365C45.6641 9.52535 45.593 9.48526 45.531 9.46627C45.333 9.40575 45.2428 9.45695 45.0758 9.5274Z" fill="#FEC32B"/>
<path fill-rule="evenodd" clip-rule="evenodd" d="M49.2773 19.8424C49.2666 19.8602 51.04 21.24 51.1868 21.6299C50.5399 22.3892 50.3142 22.4962 49.15 22.6934C48.336 20.6961 49.1123 21.0133 48.8338 20.0642C48.9235 20.0524 49.18 19.8612 49.2773 19.8424Z" fill="#FEC32B"/>
<path d="M7.08008 50.5991C7.08008 49.3666 7.50758 48.4076 8.36258 47.7221C9.21758 47.0366 10.5079 46.6938 12.2333 46.6938C13.3735 46.6938 14.344 46.8016 15.145 47.0172V50.2063C14.2823 49.9443 13.4311 49.8135 12.5916 49.8135C11.752 49.8135 11.2088 49.9096 10.9624 50.1022C10.7158 50.2948 10.5927 50.576 10.5927 50.9458V58.7103C10.5927 59.4498 11.1743 59.8196 12.3374 59.8196C13.5005 59.8196 14.4595 59.7041 15.2144 59.4729V62.5925C14.3824 62.8237 13.3735 62.9392 12.1872 62.9392C10.4616 62.9392 9.17915 62.6004 8.3395 61.9224C7.49984 61.2446 7.08008 60.2894 7.08008 59.057V50.5991ZM22.8173 50.8994C22.8173 50.1292 22.3588 49.7441 21.4422 49.7441C20.5257 49.7441 20.0672 50.1292 20.0672 50.8994V58.7334C20.0672 59.5036 20.5257 59.889 21.4422 59.889C22.3588 59.889 22.8173 59.5036 22.8173 58.7334V50.8994ZM16.6009 50.7145C16.6009 49.4513 17.0093 48.4462 17.8257 47.6988C18.6422 46.9519 19.8439 46.5781 21.4307 46.5781C23.0176 46.5781 24.223 46.9519 25.0473 47.6988C25.8715 48.4462 26.2834 49.4513 26.2834 50.7145V58.9183C26.2834 60.1815 25.8715 61.1868 25.0473 61.934C24.223 62.6812 23.0176 63.0547 21.4307 63.0547C19.8439 63.0547 18.6422 62.6812 17.8257 61.934C17.0093 61.1868 16.6009 60.1815 16.6009 58.9183V50.7145ZM37.6994 46.8093H40.6802L38.5544 62.8237H35.4578L34.5103 56.4919L34.0019 52.0781C33.8786 53.7881 33.7245 55.2594 33.5396 56.4919L32.5692 62.8237H29.2644L27.2078 46.8093H30.2351C30.8205 51.0151 31.1442 53.4723 31.2057 54.1809C31.2673 54.8896 31.3214 55.6599 31.3675 56.4919C31.5987 54.3657 31.9838 51.1383 32.5231 46.8093H35.4578L36.5438 56.33C36.6208 54.7895 36.7519 53.3722 36.9368 52.0781L37.6994 46.8093ZM41.8358 46.8093H49.7622V49.8365H45.3484V53.7881H49.4155V56.8846H45.3484V62.8237H41.8358V46.8093ZM51.1485 46.8093H54.6611V62.8237H51.1485V46.8093ZM65.1064 46.8093V49.8135H62.2177V62.8237H58.7051V49.8135H55.8165V46.8093H65.1064Z" fill="#FEC32B"/>
<path d="M4.02856 68.767H3.26186V68.2345C3.26186 68.1459 3.21576 68.1014 3.12336 68.1014H2.90507C2.80929 68.1014 2.76147 68.1459 2.76147 68.2345V70.3109C2.76147 70.3606 2.77199 70.3953 2.79335 70.4148C2.81472 70.4343 2.85183 70.4441 2.90507 70.4441H3.12336C3.17323 70.4441 3.20862 70.4343 3.23005 70.4148C3.25122 70.3953 3.26186 70.3606 3.26186 70.3109V69.7945H4.02856V70.3801C4.02856 70.7707 3.80321 70.9659 3.35249 70.9659H2.67091C2.2237 70.9659 2 70.7707 2 70.3801V68.1653C2 67.7748 2.2237 67.5796 2.67091 67.5796H3.35249C3.80321 67.5796 4.02856 67.7748 4.02856 68.1653V68.767ZM5.24769 70.4067H5.37013C5.47662 70.4067 5.52987 70.3499 5.52987 70.2365V69.0597C5.52987 68.9461 5.47662 68.8895 5.37013 68.8895H5.24769C5.15191 68.8895 5.10389 68.9338 5.10389 69.0226V70.2736C5.10389 70.3623 5.15191 70.4067 5.24769 70.4067ZM5.54059 68.3304H6.26997V70.9659H5.52987V70.7049C5.47662 70.8788 5.33659 70.9659 5.10931 70.9659H4.98146C4.56632 70.9659 4.35856 70.7688 4.35856 70.3749V68.9214C4.35856 68.5274 4.56632 68.3304 4.98146 68.3304H5.10931C5.34711 68.3304 5.49091 68.4297 5.54059 68.6285V68.3304ZM7.88321 68.8895H7.53706V70.2684C7.53706 70.3535 7.58509 70.396 7.68087 70.396H7.88321V70.9659H7.46788C7.02073 70.9659 6.79702 70.7688 6.79702 70.3749V68.8895H6.52007V68.3304H6.79702V67.8406H7.53706V68.3304H7.88321V68.8895ZM9.32604 68.8895H8.97991V70.2684C8.97991 70.3535 9.02793 70.396 9.12371 70.396H9.32604V70.9659H8.91071C8.4635 70.9659 8.23986 70.7688 8.23986 70.3749V68.8895H7.96291V68.3304H8.23986V67.8406H8.97991V68.3304H9.32604V68.8895ZM10.3428 70.9659H9.60279V67.4039H10.3428V70.9659ZM11.4609 69.4165H11.988V68.9906C11.988 68.9444 11.9774 68.9116 11.9561 68.8921C11.9347 68.8726 11.8993 68.8628 11.8496 68.8628H11.6047C11.5515 68.8628 11.5141 68.8726 11.493 68.8921C11.4715 68.9116 11.4609 68.9444 11.4609 68.9906V69.4165ZM11.4236 68.3304H12.0253C12.476 68.3304 12.7014 68.5274 12.7014 68.9214V69.853H11.4609V70.3057C11.4609 70.3518 11.4715 70.3846 11.493 70.4041C11.5141 70.4236 11.5515 70.4333 11.6047 70.4333H11.8444C11.894 70.4333 11.9295 70.4227 11.9506 70.4015C11.972 70.3801 11.9827 70.3446 11.9827 70.295V70.1193H12.6962V70.3749C12.6962 70.7688 12.4707 70.9659 12.02 70.9659H11.4236C10.9764 70.9659 10.7529 70.7688 10.7529 70.3749V68.9214C10.7529 68.5274 10.9764 68.3304 11.4236 68.3304ZM15.4753 67.5796H16.226V70.9659H15.4753V69.5708H14.7937V70.9659H14.0432V67.5796H14.7937V69.0119H15.4753V67.5796ZM17.36 69.4165H17.8871V68.9906C17.8871 68.9444 17.8764 68.9116 17.8552 68.8921C17.8338 68.8726 17.7984 68.8628 17.7487 68.8628H17.5038C17.4506 68.8628 17.4133 68.8726 17.3919 68.8921C17.3707 68.9116 17.36 68.9444 17.36 68.9906V69.4165ZM17.3227 68.3304H17.9244C18.3751 68.3304 18.6005 68.5274 18.6005 68.9214V69.853H17.36V70.3057C17.36 70.3518 17.3707 70.3846 17.3919 70.4041C17.4133 70.4236 17.4506 70.4333 17.5038 70.4333H17.7433C17.793 70.4333 17.8286 70.4227 17.8498 70.4015C17.8712 70.3801 17.8818 70.3446 17.8818 70.295V70.1193H18.5952V70.3749C18.5952 70.7688 18.3699 70.9659 17.919 70.9659H17.3227C16.8755 70.9659 16.6518 70.7688 16.6518 70.3749V68.9214C16.6518 68.5274 16.8755 68.3304 17.3227 68.3304ZM19.8144 70.4067H19.9368C20.0433 70.4067 20.0966 70.3499 20.0966 70.2365V69.0597C20.0966 68.9461 20.0433 68.8895 19.9368 68.8895H19.8144C19.7186 68.8895 19.6706 68.9338 19.6706 69.0226V70.2736C19.6706 70.3623 19.7186 70.4067 19.8144 70.4067ZM20.1073 68.3304H20.8367V70.9659H20.0966V70.7049C20.0433 70.8788 19.9031 70.9659 19.676 70.9659H19.5482C19.1328 70.9659 18.9252 70.7688 18.9252 70.3749V68.9214C18.9252 68.5274 19.1328 68.3304 19.5482 68.3304H19.676C19.9137 68.3304 20.0576 68.4297 20.1073 68.6285V68.3304ZM22.0239 70.9659H21.2838V67.4039H22.0239V70.9659ZM23.6371 68.8895H23.291V70.2684C23.291 70.3535 23.339 70.396 23.4348 70.396H23.6371V70.9659H23.2218C22.7746 70.9659 22.551 70.7688 22.551 70.3749V68.8895H22.274V68.3304H22.551V67.8406H23.291V68.3304H23.6371V68.8895ZM25.0693 68.3304H25.2024C25.6177 68.3304 25.8252 68.5274 25.8252 68.9214V70.9659H25.0799V69.0226C25.0799 68.9338 25.032 68.8895 24.9361 68.8895H24.8085C24.7055 68.8895 24.6539 68.9461 24.6539 69.0597V70.9659H23.9139V67.4039H24.6539V68.5914C24.7072 68.4173 24.8456 68.3304 25.0693 68.3304ZM27.8909 70.9659H27.2201V67.5796H28.0507L28.6098 69.4964L29.1687 67.5796H29.9994V70.9659H29.3285V68.6924L28.8918 70.231H28.3276L27.8909 68.6977V70.9659ZM31.6498 70.3002V68.9958C31.6498 68.9071 31.602 68.8628 31.5061 68.8628H31.3091C31.2132 68.8628 31.1653 68.9071 31.1653 68.9958V70.3002C31.1653 70.3891 31.2132 70.4333 31.3091 70.4333H31.5061C31.602 70.4333 31.6498 70.3891 31.6498 70.3002ZM31.0908 68.3304H31.7244C31.9586 68.3304 32.1262 68.381 32.2274 68.482C32.3287 68.5833 32.3791 68.7298 32.3791 68.9214V70.3749C32.3791 70.5665 32.3287 70.7129 32.2274 70.814C32.1262 70.9152 31.9586 70.9659 31.7244 70.9659H31.0908C30.8564 70.9659 30.6888 70.9152 30.5875 70.814C30.4865 70.7129 30.4359 70.5665 30.4359 70.3749V68.9214C30.4359 68.7298 30.4865 68.5833 30.5875 68.482C30.6888 68.381 30.8564 68.3304 31.0908 68.3304ZM33.955 68.3304H34.0882C34.5035 68.3304 34.7111 68.5274 34.7111 68.9214V70.9659H33.9657V69.0226C33.9657 68.9338 33.9177 68.8895 33.8219 68.8895H33.6942C33.5913 68.8895 33.54 68.9461 33.54 69.0597V70.9659H32.7997V68.3304H33.5291V68.6285C33.5789 68.4297 33.7209 68.3304 33.955 68.3304ZM35.8771 70.9659H35.1371V68.3304H35.8771V70.9659ZM35.1211 67.979V67.4039H35.893V67.979H35.1211ZM37.4904 68.8895H37.1442V70.2684C37.1442 70.3535 37.1923 70.396 37.2881 70.396H37.4904V70.9659H37.0751C36.6279 70.9659 36.4042 70.7688 36.4042 70.3749V68.8895H36.1272V68.3304H36.4042V67.8406H37.1442V68.3304H37.4904V68.8895ZM38.9544 70.3002V68.9958C38.9544 68.9071 38.9066 68.8628 38.8107 68.8628H38.6137C38.5179 68.8628 38.4699 68.9071 38.4699 68.9958V70.3002C38.4699 70.3891 38.5179 70.4333 38.6137 70.4333H38.8107C38.9066 70.4333 38.9544 70.3891 38.9544 70.3002ZM38.3955 68.3304H39.029C39.2632 68.3304 39.431 68.381 39.532 68.482C39.6333 68.5833 39.6837 68.7298 39.6837 68.9214V70.3749C39.6837 70.5665 39.6333 70.7129 39.532 70.814C39.431 70.9152 39.2632 70.9659 39.029 70.9659H38.3955C38.161 70.9659 37.9934 70.9152 37.8924 70.814C37.7912 70.7129 37.7405 70.5665 37.7405 70.3749V68.9214C37.7405 68.7298 37.7912 68.5833 37.8924 68.482C37.9934 68.381 38.161 68.3304 38.3955 68.3304ZM41.3503 68.3144H41.4408V68.9587H41.18C40.9563 68.9587 40.8446 69.0827 40.8446 69.3312V70.9659H40.1045V68.3304H40.8339V68.7084C40.8622 68.5914 40.9208 68.4963 41.0095 68.4235C41.0982 68.3508 41.2119 68.3144 41.3503 68.3144ZM42.4311 70.9659H41.6911V68.3304H42.4311V70.9659ZM41.675 67.979V67.4039H42.4471V67.979H41.675ZM44.0337 68.3304H44.1667C44.582 68.3304 44.7896 68.5274 44.7896 68.9214V70.9659H44.0442V69.0226C44.0442 68.9338 43.9964 68.8895 43.9007 68.8895H43.7727C43.6698 68.8895 43.6184 68.9461 43.6184 69.0597V70.9659H42.8784V68.3304H43.6077V68.6285C43.6574 68.4297 43.7994 68.3304 44.0337 68.3304ZM46.0569 70.295H46.1793C46.2858 70.295 46.339 70.2381 46.339 70.1245V69.0597C46.339 68.9461 46.2858 68.8895 46.1793 68.8895H46.0569C45.9609 68.8895 45.9131 68.9338 45.9131 69.0226V70.1618C45.9131 70.2505 45.9609 70.295 46.0569 70.295ZM46.3495 68.3304H47.0789V71.0828C47.0789 71.4768 46.8554 71.6738 46.4082 71.6738H45.2795V71.1308H46.1952C46.291 71.1308 46.339 71.0864 46.339 70.9978V70.5931C46.2858 70.7669 46.1456 70.8539 45.9183 70.8539H45.7906C45.3753 70.8539 45.1677 70.657 45.1677 70.2629V68.9214C45.1677 68.5274 45.3753 68.3304 45.7906 68.3304H45.9183C46.1562 68.3304 46.2999 68.4297 46.3495 68.6285V68.3304ZM48.5113 67.5796H49.2672V70.9659H48.5113V67.5796ZM50.9335 70.3002V68.9958C50.9335 68.9071 50.8857 68.8628 50.7899 68.8628H50.5929C50.497 68.8628 50.4491 68.9071 50.4491 68.9958V70.3002C50.4491 70.3891 50.497 70.4333 50.5929 70.4333H50.7899C50.8857 70.4333 50.9335 70.3891 50.9335 70.3002ZM50.3746 68.3304H51.0082C51.2424 68.3304 51.4102 68.381 51.5112 68.482C51.6125 68.5833 51.6629 68.7298 51.6629 68.9214V70.3749C51.6629 70.5665 51.6125 70.7129 51.5112 70.814C51.4102 70.9152 51.2424 70.9659 51.0082 70.9659H50.3746C50.1402 70.9659 49.9726 70.9152 49.8716 70.814C49.7703 70.7129 49.7197 70.5665 49.7197 70.3749V68.9214C49.7197 68.7298 49.7703 68.5833 49.8716 68.482C49.9726 68.381 50.1402 68.3304 50.3746 68.3304ZM53.8885 67.5796V68.1387H53.2655V70.9659H52.5042V68.1387H51.8866V67.5796H53.8885ZM56.2842 70.2736V69.6614C56.2842 69.6153 56.2735 69.5825 56.2524 69.5628C56.231 69.5433 56.1936 69.5335 56.1404 69.5335H55.672C55.2532 69.5335 55.0438 69.3348 55.0438 68.9373V68.1653C55.0438 67.7748 55.2674 67.5796 55.7146 67.5796H56.3641C56.8113 67.5796 57.035 67.7748 57.035 68.1653V68.6073H56.2735V68.2718C56.2735 68.183 56.2257 68.1387 56.1299 68.1387H55.9488C55.853 68.1387 55.805 68.183 55.805 68.2718V68.8681C55.805 68.9142 55.8157 68.947 55.837 68.9666C55.8584 68.9861 55.8955 68.9958 55.9488 68.9958H56.4067C56.6339 68.9958 56.7972 69.0447 56.8966 69.1422C56.996 69.2399 57.0457 69.3845 57.0457 69.5763V70.3749C57.0457 70.7688 56.8219 70.9659 56.3748 70.9659H55.7305C55.2798 70.9659 55.0544 70.7688 55.0544 70.3749V69.9381H55.8157V70.2736C55.8157 70.3623 55.8636 70.4067 55.9595 70.4067H56.1404C56.2362 70.4067 56.2842 70.3623 56.2842 70.2736ZM58.6323 70.3002V68.9958C58.6323 68.9071 58.5843 68.8628 58.4885 68.8628H58.2914C58.1956 68.8628 58.1476 68.9071 58.1476 68.9958V70.3002C58.1476 70.3891 58.1956 70.4333 58.2914 70.4333H58.4885C58.5843 70.4333 58.6323 70.3891 58.6323 70.3002ZM58.0732 68.3304H58.7067C58.9409 68.3304 59.1087 68.381 59.2098 68.482C59.311 68.5833 59.3617 68.7298 59.3617 68.9214V70.3749C59.3617 70.5665 59.311 70.7129 59.2098 70.814C59.1087 70.9152 58.9409 70.9659 58.7067 70.9659H58.0732C57.8388 70.9659 57.6711 70.9152 57.5701 70.814C57.4689 70.7129 57.4183 70.5665 57.4183 70.3749V68.9214C57.4183 68.7298 57.4689 68.5833 57.5701 68.482C57.6711 68.381 57.8388 68.3304 58.0732 68.3304ZM60.5223 70.9659H59.7822V67.4039H60.5223V70.9659ZM62.1194 68.3304H62.8595V70.9659H62.1301V70.6678C62.0804 70.8665 61.9366 70.9659 61.6989 70.9659H61.5711C61.1558 70.9659 60.9481 70.7688 60.9481 70.3749V68.3304H61.6936V70.2736C61.6936 70.3623 61.7414 70.4067 61.8372 70.4067H61.9596C62.0662 70.4067 62.1194 70.3499 62.1194 70.2365V68.3304ZM64.4727 68.8895H64.1266V70.2684C64.1266 70.3535 64.1746 70.396 64.2704 70.396H64.4727V70.9659H64.0574C63.6102 70.9659 63.3865 70.7688 63.3865 70.3749V68.8895H63.1098V68.3304H63.3865V67.8406H64.1266V68.3304H64.4727V68.8895ZM65.4897 70.9659H64.7496V68.3304H65.4897V70.9659ZM64.7335 67.979V67.4039H65.5056V67.979H64.7335ZM67.1242 70.3002V68.9958C67.1242 68.9071 67.0761 68.8628 66.9804 68.8628H66.7834C66.6875 68.8628 66.6396 68.9071 66.6396 68.9958V70.3002C66.6396 70.3891 66.6875 70.4333 66.7834 70.4333H66.9804C67.0761 70.4333 67.1242 70.3891 67.1242 70.3002ZM66.5652 68.3304H67.1986C67.433 68.3304 67.6006 68.381 67.7019 68.482C67.8029 68.5833 67.8535 68.7298 67.8535 68.9214V70.3749C67.8535 70.5665 67.8029 70.7129 67.7019 70.814C67.6006 70.9152 67.433 70.9659 67.1986 70.9659H66.5652C66.3309 70.9659 66.1631 70.9152 66.062 70.814C65.9609 70.7129 65.9102 70.5665 65.9102 70.3749V68.9214C65.9102 68.7298 65.9609 68.5833 66.062 68.482C66.1631 68.381 66.3309 68.3304 66.5652 68.3304ZM69.4295 68.3304H69.5626C69.9779 68.3304 70.1854 68.5274 70.1854 68.9214V70.9659H69.4402V69.0226C69.4402 68.9338 69.3922 68.8895 69.2963 68.8895H69.1687C69.0657 68.8895 69.0141 68.9461 69.0141 69.0597V70.9659H68.2741V68.3304H69.0035V68.6285C69.0534 68.4297 69.1953 68.3304 69.4295 68.3304Z" fill="#65A04F"/>
</svg>
