<svg width="129" height="122" viewBox="0 0 129 122" fill="none" xmlns="http://www.w3.org/2000/svg">
<path d="M42.4892 74.5898L42.2443 73.3325H40.3599L40.1029 74.5898H37.998L40.0171 66.1823H42.6236L44.6428 74.5898H42.4892ZM40.6903 71.7087H41.9139L41.3141 68.6834L40.6903 71.7087ZM48.9504 74.5898H46.8087V71.8659L44.6428 66.1823H46.8334L47.861 69.7313L48.8157 66.1823H50.9939L48.9504 71.8398V74.5898ZM54.7507 66.1823H56.8921V72.9661C56.8921 74.0484 56.2923 74.5898 55.0931 74.5898H53.2821C52.0829 74.5898 51.4835 74.0484 51.4835 72.9661V66.1823H53.6249V72.6647C53.6249 72.8568 53.7268 72.953 53.9308 72.953H54.4448C54.6485 72.953 54.7507 72.8568 54.7507 72.6647V66.1823ZM60.8815 72.6647V71.4729C60.8815 71.2808 60.7796 71.1849 60.5756 71.1849H59.4007C58.7969 71.1849 58.3708 71.043 58.1219 70.7591C57.8732 70.4757 57.7489 70.0674 57.7489 69.5349V67.8062C57.7489 66.7235 58.3443 66.1823 59.5355 66.1823H61.2119C62.403 66.1823 62.9984 66.7235 62.9984 67.8062V68.8147H60.857V68.1074C60.857 67.9153 60.7548 67.8192 60.5511 67.8192H60.1962C59.9922 67.8192 59.8903 67.9153 59.8903 68.1074V69.3514C59.8903 69.5435 59.9922 69.6396 60.1962 69.6396H61.3465C61.9499 69.6396 62.3805 69.7748 62.6375 70.0455C62.8945 70.316 63.0229 70.7133 63.0229 71.2374V72.9661C63.0229 74.0484 62.4275 74.5898 61.2363 74.5898H59.572C58.3728 74.5898 57.7734 74.0484 57.7734 72.9661V71.9576H59.9148V72.6647C59.9148 72.8568 60.0167 72.953 60.2207 72.953H60.5756C60.7796 72.953 60.8815 72.8568 60.8815 72.6647ZM67.5262 66.1823H69.6311V74.5898H67.5262V71.2635H65.9842V74.5898H63.8796V66.1823H65.9842V69.6265H67.5262V66.1823ZM72.519 74.5898H70.6098V66.1823H72.9472L74.2198 70.6741L75.4924 66.1823H77.8298V74.5898H75.933V69.2467L74.9539 72.7696H73.4857L72.519 69.2728V74.5898ZM82.8103 74.5898L82.5657 73.3325H80.6809L80.424 74.5898H78.3193L80.3385 66.1823H82.945L84.9641 74.5898H82.8103ZM81.0117 71.7087H82.235L81.6355 68.6834L81.0117 71.7087ZM89.0392 66.1823H90.997V74.5898H89.1615L87.4114 70.1764V74.5898H85.4537V66.1823H87.2891L89.0392 70.6741V66.1823Z" fill="#65A04F"/>
<path fill-rule="evenodd" clip-rule="evenodd" d="M1.22057 108.875H127.78C128.451 108.875 129 109.418 129 110.083C129 110.748 128.451 111.291 127.78 111.291H1.22057C0.549169 111.291 0 110.748 0 110.083C0 109.418 0.549169 108.875 1.22057 108.875Z" fill="#373435"/>
<path fill-rule="evenodd" clip-rule="evenodd" d="M1.22034 59.8179H127.779C128.451 59.8179 129 60.3614 129 61.0262C129 61.6904 128.451 62.2344 127.779 62.2344H1.22034C0.548816 62.2344 0 61.6904 0 61.0262C0 60.3614 0.548816 59.8179 1.22034 59.8179Z" fill="#373435"/>
<path fill-rule="evenodd" clip-rule="evenodd" d="M71.2502 42.4172C70.6954 42.952 63.8413 53.8021 64.7178 56.2564C65.6412 58.8409 66.5057 55.8334 67.0834 59.6434C64.4159 59.6434 62.9804 60.4975 62.7245 58.0145C62.559 56.6817 61.6114 57.1349 62.3073 54.1714L65.7434 41.2448C60.0118 41.1735 56.4423 42.0483 54.1316 41.9339C51.3231 41.7946 48.0988 40.0958 47.0889 42.1651C46.3125 43.7562 47.6551 43.0557 46.4033 44.7998C44.5424 44.3352 46.1219 44.8529 44.7742 42.8934C44.0619 43.6042 44.3916 43.1458 44.2247 45.5067C41.0366 44.6749 43.8435 44.3757 41.9228 43.252C40.9665 45.667 43.3285 50.2859 44.4117 51.8677C45.229 53.0615 46.3096 53.9454 47.351 54.7915C50.2061 57.1108 48.1387 56.7926 50.0368 57.7458C50.4553 58.6966 50.398 58.8214 51.101 59.5403L47.1274 59.6622L46.1607 57.5901L44.7112 57.5178C44.4445 56.9157 44.7147 57.4097 44.3514 56.7266C44.2994 56.6292 44.0917 56.2527 44.0338 56.1523L43.6544 55.5522C39.9724 50.2693 43.365 54.1141 39.0972 50.5664C37.6621 49.3732 38.1419 49.7424 37.467 47.4745C37.0855 46.1917 36.5007 44.7811 36.0591 43.8138C33.7749 47.1265 30.4163 50.5216 31.6095 55.5409C32.6207 59.7961 33.3528 58.9399 34.4943 58.9833C34.1915 59.155 34.6806 59.0962 33.5092 59.4349C32.8117 59.6364 32.8612 59.5996 32.1093 59.6525C31.0921 59.7247 30.4565 59.6654 29.3702 59.8145C29.0361 58.6701 29.1527 58.063 28.9583 57.1283C28.6176 55.4886 27.9354 56.9977 28.5784 53.9882L28.8568 50.5269L27.3289 54.0708C26.4511 52.8597 26.7848 52.8758 26.8424 51.039C26.8933 49.4241 26.8495 48.6972 27.143 47.404C27.7323 44.8145 27.3417 29.6015 27.4238 25.7275C27.7796 8.96507 45.4722 19.1656 64.7704 16.6772C69.4043 16.0794 67.1397 15.4879 69.9281 14.2682C75.2402 11.9452 75.2252 18.4641 80.8989 16.0156C81.367 15.8135 85.0105 13.2916 85.1811 13.1222C87.4569 10.8654 83.5995 12.7287 87.9272 9.17725L87.5807 5.73375C88.9757 6.40014 89.1992 7.57754 89.1063 9.71247C90.4559 9.76973 92.0375 10.4123 92.8641 10.0291C94.134 9.44066 93.6053 9.07794 94.0184 7.47503L94.582 6.07577C95.3523 9.34523 94.895 9.78575 93.5902 12.2611C95.6361 12.8122 95.0139 12.3565 96.0255 13.6152C97.215 15.0952 100.449 17.4511 102.245 18.5177C102.361 20.6898 102.152 20.9381 101.626 22.4813C99.4612 22.7953 99.0092 23.1267 97.2442 23.5517C93.8629 24.3663 95.3246 24.1494 91.3275 26.7325C88.5019 28.5586 89.8717 26.854 88.9928 28.5799L88.4074 29.7186C88.2543 29.7494 88.0908 29.7892 87.9212 29.8377C86.0254 30.3815 85.6692 30.7708 84.9853 32.945C83.8568 36.5324 84.5069 34.0749 83.121 36.264C82.583 37.1138 82.0257 39.1932 81.5797 39.8538C80.6408 41.2438 79.9841 40.6958 78.7072 41.8108C86.1253 48.3947 82.0243 48.5667 77.6829 54.4103C74.6287 58.5209 73.7512 56.0295 73.9375 58.6389C74.3285 60.0454 72.0273 59.3074 71.3614 59.0861C71.3614 58.8736 69.5776 59.525 71.2161 57.7057C71.5934 53.9591 72.5312 56.1791 73.963 53.6372C74.2799 53.0746 73.5766 53.6783 74.5728 52.8212C76.5175 51.1484 80.7742 48.3535 75.644 45.4615C73.25 44.1121 73.1485 44.3175 71.2502 42.4172ZM29.7133 29.8642L29.4445 27.1652L28.8592 30.7885C29.214 36.6619 28.4461 42.8804 28.6729 47.9897L29.9716 39.5914C30.5805 36.7536 29.7371 32.9386 29.7133 29.8642Z" fill="#65A04F"/>
<path fill-rule="evenodd" clip-rule="evenodd" d="M81.8531 18.9355L84.4747 17.7049L83.7211 15.667L80.9648 16.9843L81.8531 18.9355Z" fill="#FEC32B"/>
<path fill-rule="evenodd" clip-rule="evenodd" d="M82.8961 21.4941L85.5177 20.2642L84.7644 18.226L82.0078 19.5429L82.8961 21.4941Z" fill="#FEC32B"/>
<path fill-rule="evenodd" clip-rule="evenodd" d="M83.9432 24.0547L86.5651 22.8248L85.8116 20.7866L83.0547 22.1038L83.9432 24.0547Z" fill="#FEC32B"/>
<path fill-rule="evenodd" clip-rule="evenodd" d="M84.986 26.6152L87.6079 25.3853L86.8543 23.3471L84.0977 24.664L84.986 26.6152Z" fill="#FEC32B"/>
<path fill-rule="evenodd" clip-rule="evenodd" d="M86.0348 29.1758L88.6567 27.9457L87.9031 25.9078L85.1465 27.2249L86.0348 29.1758Z" fill="#FEC32B"/>
<path fill-rule="evenodd" clip-rule="evenodd" d="M78.551 0.315053C78.4347 0.364524 78.2716 0.412091 78.1452 0.406069C78.0702 0.478682 77.719 0.556993 77.588 0.602804C77.4295 0.658414 77.1915 0.76514 77.0291 0.79997C76.9597 0.861248 76.7188 0.964654 76.6025 0.971266C76.5241 1.06608 76.1934 1.1918 76.0601 1.26276C75.8986 1.34848 75.6554 1.50522 75.5109 1.5534L74.4049 2.32815C74.3466 2.37302 74.2792 2.42557 74.2292 2.465L74.1016 2.57043C74.0487 2.60196 74.0862 2.58756 74.0356 2.59594C73.9914 2.67989 73.3926 3.20066 73.2665 3.32653C73.2019 3.39076 73.0717 3.52134 73.0156 3.60765C73.0773 3.71509 73.5615 4.20346 73.6815 4.33628C73.7867 4.45305 73.9006 4.57491 74.0098 4.68767C74.115 4.79653 74.246 4.96544 74.3623 5.05152C74.4463 5.00299 74.4528 4.97857 74.5269 4.93701C74.5363 4.88081 74.5057 4.90215 74.572 4.89377C74.629 4.78267 74.8967 4.50863 75.0357 4.45267C75.1027 4.28702 76.299 3.44263 76.5298 3.34959C76.61 3.27001 76.9152 3.12697 77.022 3.07041C77.203 2.97371 77.3692 2.8878 77.5712 2.82381C77.656 2.7532 78.3324 2.50451 78.4508 2.50817C78.4805 2.48408 78.4343 2.50727 78.505 2.47444L79.0874 2.32412C79.1212 2.28964 79.3323 2.25716 79.4187 2.26625C79.5394 2.17546 79.9606 2.15643 80.1489 2.14403C80.5289 2.0922 81.7864 2.04704 82.1007 2.15744L82.5869 2.22143L83.0774 2.31374C83.1099 2.32083 83.1309 2.32316 83.1618 2.3345L83.2178 2.36224C83.2225 2.3646 83.2305 2.36936 83.2359 2.37291C83.3472 2.36464 83.5422 2.42671 83.6008 2.46118C83.7117 2.47925 84.5346 2.73161 84.6466 2.85912C84.7664 2.85794 85.5438 3.25913 85.6383 3.34851C85.9409 3.47236 87.0393 4.25776 87.1695 4.4861C87.25 4.50311 87.2051 4.48609 87.2767 4.55067C87.3187 4.58881 87.3391 4.60655 87.3729 4.63737C87.4329 4.69156 87.5107 4.76554 87.5371 4.82942C87.6233 4.87464 87.637 4.8813 87.6782 4.97434L87.8029 5.05469L89.1649 3.61392C89.0815 3.47566 88.5836 3.01248 88.4197 2.8682C88.3735 2.82806 88.1962 2.69016 88.1724 2.63053L87.0214 1.79719C86.9056 1.72186 86.6747 1.60415 86.613 1.51607C86.5246 1.51489 86.2653 1.35003 86.1724 1.29584C86.0832 1.24365 85.7817 1.10543 85.7331 1.06257C85.6454 1.03577 85.057 0.806604 84.9719 0.713566C84.9303 0.725373 84.1968 0.486642 84.1413 0.450749L83.6008 0.316855C82.997 0.158996 82.3865 0.0820079 81.7407 0.0324188L81.0851 0.0136102L80.6957 0.000278357C80.5942 0.0739536 80.2833 0.046475 80.1422 0.0592265C79.9462 0.0772911 79.7851 0.0909512 79.5988 0.11976C79.2385 0.175607 78.8951 0.261804 78.551 0.315053Z" fill="#FEC32B"/>
<path fill-rule="evenodd" clip-rule="evenodd" d="M80.0781 3.81491C79.9739 3.85269 79.7223 3.88387 79.5769 3.91162C79.3889 3.9468 79.218 3.99791 79.0542 4.02743L78.6628 4.14049L78.5308 4.20477C78.1615 4.33229 77.7494 4.56486 77.5219 4.64184C77.4927 4.68836 77.1581 4.8655 77.0743 4.91662C76.9717 4.97896 76.6745 5.20918 76.6142 5.20552C76.5344 5.32796 75.6693 5.93011 75.4746 6.26212C75.6545 6.43073 76.7496 7.64869 76.8398 7.69922C76.905 7.65872 77.0907 7.45918 77.1784 7.38019C77.292 7.27783 77.4214 7.13322 77.5617 7.07702L77.7065 6.9455C77.9666 6.76108 78.8018 6.22389 79.033 6.24101C79.0572 6.21763 79.0485 6.2236 79.086 6.20152C79.1181 6.18239 79.1272 6.17933 79.1581 6.16729L79.5836 6.04118C79.847 5.86773 81.1724 5.80155 81.5648 5.85208C81.7608 5.86519 81.9448 5.89288 82.1257 5.92429C82.2534 5.94672 82.5412 5.98525 82.6393 6.07569C82.7624 6.04889 82.9795 6.14426 83.0811 6.20354C83.3273 6.27213 84.455 6.81435 84.6532 7.10988C84.7034 7.12228 84.6473 7.09921 84.6977 7.1279C84.8404 7.21019 85.2473 7.64638 85.3296 7.69857C85.4372 7.64331 86.4987 6.45751 86.695 6.26234C86.5389 5.97921 85.6935 5.36149 85.658 5.28746L84.7346 4.70439C84.7114 4.6914 84.6934 4.68435 84.6696 4.66829L84.5948 4.60098C84.494 4.60004 84.2333 4.45249 84.1164 4.39618C83.9813 4.33136 83.6851 4.23391 83.6208 4.18669L82.9413 3.97179L82.171 3.82752C81.606 3.78478 81.1419 3.74158 80.554 3.77275L80.0781 3.81491Z" fill="#FEC32B"/>
<path fill-rule="evenodd" clip-rule="evenodd" d="M79.5732 7.76483C79.529 7.79434 79.1347 7.97731 79.062 7.99939L78.4763 8.39308C78.3627 8.47703 77.9991 8.79698 77.9492 8.88542C77.9934 8.97775 78.5074 9.50482 78.6096 9.61297L79.2858 10.3496C79.4047 10.2907 79.7405 9.89481 80.0862 9.80236C80.1814 9.70802 80.6796 9.56811 80.8653 9.59798C81.012 9.49219 81.391 9.58123 81.5642 9.61405C81.6758 9.63507 81.7854 9.66515 81.8835 9.70269C81.9385 9.72371 81.9814 9.74121 82.0327 9.76424C82.0514 9.77368 82.0819 9.78802 82.1023 9.80207C82.1372 9.82615 82.1248 9.81749 82.1463 9.84228C82.2156 9.84582 82.1546 9.82818 82.2541 9.87529C82.5202 10.0028 82.7662 10.291 82.8831 10.3496C83.0972 10.0658 84.1423 9.05308 84.2196 8.88542C84.1368 8.73441 83.5914 8.31039 83.4061 8.18618C83.3083 8.12089 83.1903 8.06505 83.1048 7.99975C82.9484 7.94887 82.7728 7.8411 82.6033 7.77722C82.4531 7.72031 82.1791 7.65006 82.0876 7.60319L81.5907 7.51887L81.4129 7.5041C81.1411 7.46998 80.8519 7.4935 80.5771 7.52089C80.2005 7.55265 79.9107 7.68182 79.5732 7.76483Z" fill="#FEC32B"/>
<path fill-rule="evenodd" clip-rule="evenodd" d="M80.5523 11.0694C80.5312 11.1093 80.4401 11.1731 80.4035 11.2116C80.3362 11.2822 80.3252 11.3251 80.2695 11.3546C80.2129 11.5429 80.121 11.6418 80.1137 11.9109C80.1078 12.1154 80.1679 12.3392 80.2477 12.4811C80.3975 12.7482 80.6782 12.9735 81.0817 12.9902C81.4902 12.9808 81.7508 12.7595 81.9097 12.4979C81.9844 12.3757 82.0598 12.1555 82.0602 11.966C82.0602 11.7191 81.9405 11.5179 81.9418 11.4221C81.8487 11.3448 81.7844 11.22 81.6834 11.1341C81.6038 11.0657 81.4767 10.9942 81.3658 10.9603C81.012 10.8522 80.8508 10.9436 80.5523 11.0694Z" fill="#FEC32B"/>
<path fill-rule="evenodd" clip-rule="evenodd" d="M88.0608 29.4815C88.0418 29.5132 91.2109 31.9761 91.4732 32.672C90.3172 34.0274 89.9138 34.2185 87.8334 34.5703C86.3788 31.0052 87.766 31.5715 87.2684 29.8773C87.4285 29.8563 87.8869 29.5149 88.0608 29.4815Z" fill="#FEC32B"/>
<path d="M12.6523 84.3821C12.6523 82.1822 13.4163 80.4704 14.9442 79.2467C16.4721 78.0232 18.778 77.4113 21.8613 77.4113C23.8989 77.4113 25.6332 77.6037 27.0645 77.9886V83.681C25.5229 83.2135 24.0018 82.9798 22.5016 82.9798C21.0013 82.9798 20.0305 83.1515 19.5902 83.4952C19.1496 83.839 18.9295 84.341 18.9295 85.001V98.8606C18.9295 100.181 19.9689 100.841 22.0472 100.841C24.1257 100.841 25.8396 100.634 27.1885 100.222V105.79C25.7019 106.203 23.8989 106.409 21.7789 106.409C18.6953 106.409 16.4034 105.804 14.903 104.594C13.4025 103.384 12.6523 101.679 12.6523 99.4794V84.3821ZM40.7752 84.9183C40.7752 83.5435 39.9559 82.8559 38.3178 82.8559C36.68 82.8559 35.8607 83.5435 35.8607 84.9183V98.9018C35.8607 100.277 36.68 100.964 38.3178 100.964C39.9559 100.964 40.7752 100.277 40.7752 98.9018V84.9183ZM29.6663 84.5882C29.6663 82.3334 30.3961 80.5393 31.855 79.2053C33.3142 77.8719 35.4617 77.2048 38.2974 77.2048C41.1331 77.2048 43.2873 77.8719 44.7602 79.2053C46.2332 80.5393 46.9692 82.3334 46.9692 84.5882V99.2318C46.9692 101.487 46.2332 103.281 44.7602 104.615C43.2873 105.949 41.1331 106.615 38.2974 106.615C35.4617 106.615 33.3142 105.949 31.855 104.615C30.3961 103.281 29.6663 101.487 29.6663 99.2318V84.5882ZM67.3699 77.6174H72.6967L68.8978 106.203H63.3642L61.671 94.9007L60.7623 87.0221C60.5421 90.0744 60.2667 92.7007 59.9363 94.9007L58.2021 106.203H52.2964L48.6211 77.6174H54.0311C55.0772 85.1247 55.6556 89.5108 55.7655 90.7757C55.8757 92.0407 55.9722 93.4156 56.0546 94.9007C56.4678 91.1056 57.1559 85.3447 58.1197 77.6174H63.3642L65.3048 94.6117C65.4425 91.862 65.6767 89.3321 66.0071 87.0221L67.3699 77.6174ZM74.7618 77.6174H88.9264V83.021H81.0389V90.0744H88.3069V95.6017H81.0389V106.203H74.7618V77.6174ZM91.4039 77.6174H97.681V106.203H91.4039V77.6174ZM116.347 77.6174V82.9798H111.185V106.203H104.908V82.9798H99.7457V77.6174H116.347Z" fill="#FEC32B"/>
<path d="M7.19736 116.811H5.82725V115.861C5.82725 115.703 5.74487 115.623 5.57973 115.623H5.18966C5.0185 115.623 4.93303 115.703 4.93303 115.861V119.567C4.93303 119.656 4.95183 119.718 4.99001 119.753C5.02819 119.787 5.0945 119.805 5.18966 119.805H5.57973C5.66886 119.805 5.7321 119.787 5.7704 119.753C5.80822 119.718 5.82725 119.656 5.82725 119.567V118.646H7.19736V119.691C7.19736 120.388 6.79464 120.736 5.9892 120.736H4.77121C3.97203 120.736 3.57227 120.388 3.57227 119.691V115.737C3.57227 115.04 3.97203 114.692 4.77121 114.692H5.9892C6.79464 114.692 7.19736 115.04 7.19736 115.737V116.811ZM9.37598 119.738H9.59478C9.78509 119.738 9.88024 119.637 9.88024 119.434V117.334C9.88024 117.131 9.78509 117.03 9.59478 117.03H9.37598C9.20482 117.03 9.11901 117.109 9.11901 117.268V119.501C9.11901 119.659 9.20482 119.738 9.37598 119.738ZM9.8994 116.032H11.2028V120.736H9.88024V120.27C9.78509 120.581 9.53485 120.736 9.1287 120.736H8.90021C8.15836 120.736 7.78708 120.384 7.78708 119.681V117.087C7.78708 116.384 8.15836 116.032 8.90021 116.032H9.1287C9.55364 116.032 9.81063 116.209 9.8994 116.564V116.032ZM14.0857 117.03H13.4672V119.491C13.4672 119.643 13.553 119.719 13.7241 119.719H14.0857V120.736H13.3435C12.5445 120.736 12.1447 120.384 12.1447 119.681V117.03H11.6498V116.032H12.1447V115.158H13.4672V116.032H14.0857V117.03ZM16.6641 117.03H16.0456V119.491C16.0456 119.643 16.1314 119.719 16.3025 119.719H16.6641V120.736H15.9219C15.1227 120.736 14.7231 120.384 14.7231 119.681V117.03H14.2282V116.032H14.7231V115.158H16.0456V116.032H16.6641V117.03ZM18.4811 120.736H17.1587V114.378H18.4811V120.736ZM20.4792 117.971H21.421V117.21C21.421 117.128 21.4022 117.069 21.364 117.035C21.3258 117 21.2625 116.982 21.1737 116.982H20.7361C20.641 116.982 20.5743 117 20.5365 117.035C20.4982 117.069 20.4792 117.128 20.4792 117.21V117.971ZM20.4125 116.032H21.4877C22.2932 116.032 22.696 116.384 22.696 117.087V118.75H20.4792V119.558C20.4792 119.64 20.4982 119.699 20.5365 119.734C20.5743 119.768 20.641 119.786 20.7361 119.786H21.1644C21.2532 119.786 21.3165 119.767 21.3543 119.729C21.3925 119.691 21.4117 119.627 21.4117 119.539V119.225H22.6866V119.681C22.6866 120.384 22.2838 120.736 21.4783 120.736H20.4125C19.6133 120.736 19.2139 120.384 19.2139 119.681V117.087C19.2139 116.384 19.6133 116.032 20.4125 116.032ZM27.653 114.692H28.9946V120.736H27.653V118.246H26.435V120.736H25.0937V114.692H26.435V117.249H27.653V114.692ZM31.0211 117.971H31.963V117.21C31.963 117.128 31.9438 117.069 31.906 117.035C31.8678 117 31.8044 116.982 31.7157 116.982H31.2781C31.1829 116.982 31.1162 117 31.0779 117.035C31.0401 117.069 31.0211 117.128 31.0211 117.21V117.971ZM30.9543 116.032H32.0296C32.8351 116.032 33.2379 116.384 33.2379 117.087V118.75H31.0211V119.558C31.0211 119.64 31.0401 119.699 31.0779 119.734C31.1162 119.768 31.1829 119.786 31.2781 119.786H31.706C31.7947 119.786 31.8584 119.767 31.8963 119.729C31.9345 119.691 31.9535 119.627 31.9535 119.539V119.225H33.2284V119.681C33.2284 120.384 32.8257 120.736 32.0199 120.736H30.9543C30.1553 120.736 29.7555 120.384 29.7555 119.681V117.087C29.7555 116.384 30.1553 116.032 30.9543 116.032ZM35.4071 119.738H35.6259C35.8162 119.738 35.9113 119.637 35.9113 119.434V117.334C35.9113 117.131 35.8162 117.03 35.6259 117.03H35.4071C35.2359 117.03 35.1501 117.109 35.1501 117.268V119.501C35.1501 119.659 35.2359 119.738 35.4071 119.738ZM35.9305 116.032H37.2339V120.736H35.9113V120.27C35.8162 120.581 35.5656 120.736 35.1598 120.736H34.9313C34.1891 120.736 33.8182 120.384 33.8182 119.681V117.087C33.8182 116.384 34.1891 116.032 34.9313 116.032H35.1598C35.5846 116.032 35.8417 116.209 35.9305 116.564V116.032ZM39.3555 120.736H38.033V114.378H39.3555V120.736ZM42.2385 117.03H41.6199V119.491C41.6199 119.643 41.7057 119.719 41.8769 119.719H42.2385V120.736H41.4963C40.6971 120.736 40.2974 120.384 40.2974 119.681V117.03H39.8025V116.032H40.2974V115.158H41.6199V116.032H42.2385V117.03ZM44.7977 116.032H45.0355C45.7777 116.032 46.1486 116.384 46.1486 117.087V120.736H44.8167V117.268C44.8167 117.109 44.731 117.03 44.5598 117.03H44.3316C44.1477 117.03 44.0555 117.131 44.0555 117.334V120.736H42.733V114.378H44.0555V116.498C44.1506 116.187 44.3979 116.032 44.7977 116.032ZM49.8401 120.736H48.6412V114.692H50.1255L51.1247 118.113L52.1235 114.692H53.6079V120.736H52.4091V116.678L51.6287 119.425H50.6204L49.8401 116.688V120.736ZM56.5572 119.548V117.22C56.5572 117.061 56.4718 116.982 56.3005 116.982H55.9484C55.7771 116.982 55.6914 117.061 55.6914 117.22V119.548C55.6914 119.707 55.7771 119.786 55.9484 119.786H56.3005C56.4718 119.786 56.5572 119.707 56.5572 119.548ZM55.5583 116.032H56.6906C57.109 116.032 57.4086 116.122 57.5895 116.303C57.7705 116.483 57.8606 116.745 57.8606 117.087V119.681C57.8606 120.023 57.7705 120.285 57.5895 120.465C57.4086 120.646 57.109 120.736 56.6906 120.736H55.5583C55.1395 120.736 54.84 120.646 54.659 120.465C54.4784 120.285 54.388 120.023 54.388 119.681V117.087C54.388 116.745 54.4784 116.483 54.659 116.303C54.84 116.122 55.1395 116.032 55.5583 116.032ZM60.6768 116.032H60.9147C61.6569 116.032 62.0279 116.384 62.0279 117.087V120.736H60.6959V117.268C60.6959 117.109 60.6101 117.03 60.439 117.03H60.2107C60.0268 117.03 59.9351 117.131 59.9351 117.334V120.736H58.6121V116.032H59.9156V116.564C60.0047 116.209 60.2583 116.032 60.6768 116.032ZM64.1116 120.736H62.7891V116.032H64.1116V120.736ZM62.7606 115.405V114.378H64.1401V115.405H62.7606ZM66.9946 117.03H66.376V119.491C66.376 119.643 66.4618 119.719 66.633 119.719H66.9946V120.736H66.2524C65.4532 120.736 65.0535 120.384 65.0535 119.681V117.03H64.5586V116.032H65.0535V115.158H66.376V116.032H66.9946V117.03ZM69.6108 119.548V117.22C69.6108 117.061 69.5253 116.982 69.3541 116.982H69.0019C68.8308 116.982 68.7449 117.061 68.7449 117.22V119.548C68.7449 119.707 68.8308 119.786 69.0019 119.786H69.3541C69.5253 119.786 69.6108 119.707 69.6108 119.548ZM68.612 116.032H69.7441C70.1626 116.032 70.4625 116.122 70.6431 116.303C70.824 116.483 70.9141 116.745 70.9141 117.087V119.681C70.9141 120.023 70.824 120.285 70.6431 120.465C70.4625 120.646 70.1626 120.736 69.7441 120.736H68.612C68.1931 120.736 67.8935 120.646 67.7129 120.465C67.5321 120.285 67.4415 120.023 67.4415 119.681V117.087C67.4415 116.745 67.5321 116.483 67.7129 116.303C67.8935 116.122 68.1931 116.032 68.612 116.032ZM73.8923 116.004H74.0541V117.153H73.588C73.1882 117.153 72.9886 117.375 72.9886 117.818V120.736H71.666V116.032H72.9695V116.707C73.0201 116.498 73.1249 116.328 73.2834 116.198C73.4419 116.068 73.645 116.004 73.8923 116.004ZM75.8239 120.736H74.5014V116.032H75.8239V120.736ZM74.4726 115.405V114.378H75.8524V115.405H74.4726ZM78.6877 116.032H78.9253C79.6675 116.032 80.0384 116.384 80.0384 117.087V120.736H78.7065V117.268C78.7065 117.109 78.6211 117.03 78.4499 117.03H78.2213C78.0373 117.03 77.9455 117.131 77.9455 117.334V120.736H76.6231V116.032H77.9265V116.564C78.0153 116.209 78.2689 116.032 78.6877 116.032ZM82.3031 119.539H82.5219C82.7122 119.539 82.8074 119.437 82.8074 119.235V117.334C82.8074 117.131 82.7122 117.03 82.5219 117.03H82.3031C82.1316 117.03 82.0461 117.109 82.0461 117.268V119.301C82.0461 119.459 82.1316 119.539 82.3031 119.539ZM82.8262 116.032H84.1296V120.945C84.1296 121.648 83.7302 122 82.931 122H80.914V121.031H82.5504C82.7216 121.031 82.8074 120.951 82.8074 120.793V120.071C82.7122 120.381 82.4616 120.536 82.0555 120.536H81.8274C81.0852 120.536 80.7142 120.185 80.7142 119.482V117.087C80.7142 116.384 81.0852 116.032 81.8274 116.032H82.0555C82.4807 116.032 82.7374 116.209 82.8262 116.564V116.032ZM86.6892 114.692H88.0402V120.736H86.6892V114.692ZM91.0178 119.548V117.22C91.0178 117.061 90.9324 116.982 90.7612 116.982H90.4091C90.2378 116.982 90.1521 117.061 90.1521 117.22V119.548C90.1521 119.707 90.2378 119.786 90.4091 119.786H90.7612C90.9324 119.786 91.0178 119.707 91.0178 119.548ZM90.019 116.032H91.1513C91.5698 116.032 91.8696 116.122 92.0503 116.303C92.2312 116.483 92.3213 116.745 92.3213 117.087V119.681C92.3213 120.023 92.2312 120.285 92.0503 120.465C91.8696 120.646 91.5698 120.736 91.1513 120.736H90.019C89.6002 120.736 89.3007 120.646 89.1201 120.465C88.9391 120.285 88.8487 120.023 88.8487 119.681V117.087C88.8487 116.745 88.9391 116.483 89.1201 116.303C89.3007 116.122 89.6002 116.032 90.019 116.032ZM96.2985 114.692V115.69H95.1852V120.736H93.8247V115.69H92.721V114.692H96.2985ZM100.58 119.501V118.408C100.58 118.326 100.561 118.267 100.523 118.232C100.485 118.197 100.418 118.18 100.323 118.18H99.4857C98.7372 118.18 98.3629 117.825 98.3629 117.115V115.737C98.3629 115.04 98.7626 114.692 99.5618 114.692H100.722C101.522 114.692 101.921 115.04 101.921 115.737V116.526H100.561V115.927C100.561 115.769 100.475 115.69 100.304 115.69H99.9802C99.8091 115.69 99.7232 115.769 99.7232 115.927V116.992C99.7232 117.074 99.7424 117.133 99.7806 117.168C99.8188 117.202 99.8851 117.22 99.9802 117.22H100.799C101.205 117.22 101.496 117.307 101.674 117.481C101.852 117.655 101.94 117.914 101.94 118.256V119.681C101.94 120.384 101.541 120.736 100.742 120.736H99.5903C98.7847 120.736 98.382 120.384 98.382 119.681V118.902H99.7424V119.501C99.7424 119.659 99.8281 119.738 99.9994 119.738H100.323C100.494 119.738 100.58 119.659 100.58 119.501ZM104.776 119.548V117.22C104.776 117.061 104.69 116.982 104.519 116.982H104.167C103.995 116.982 103.91 117.061 103.91 117.22V119.548C103.91 119.707 103.995 119.786 104.167 119.786H104.519C104.69 119.786 104.776 119.707 104.776 119.548ZM103.777 116.032H104.909C105.327 116.032 105.627 116.122 105.808 116.303C105.989 116.483 106.079 116.745 106.079 117.087V119.681C106.079 120.023 105.989 120.285 105.808 120.465C105.627 120.646 105.327 120.736 104.909 120.736H103.777C103.358 120.736 103.058 120.646 102.878 120.465C102.697 120.285 102.606 120.023 102.606 119.681V117.087C102.606 116.745 102.697 116.483 102.878 116.303C103.058 116.122 103.358 116.032 103.777 116.032ZM108.153 120.736H106.831V114.378H108.153V120.736ZM111.007 116.032H112.33V120.736H111.026V120.204C110.938 120.559 110.681 120.736 110.256 120.736H110.028C109.285 120.736 108.914 120.384 108.914 119.681V116.032H110.246V119.501C110.246 119.659 110.332 119.738 110.503 119.738H110.722C110.912 119.738 111.007 119.637 111.007 119.434V116.032ZM115.213 117.03H114.594V119.491C114.594 119.643 114.68 119.719 114.851 119.719H115.213V120.736H114.471C113.671 120.736 113.272 120.384 113.272 119.681V117.03H112.777V116.032H113.272V115.158H114.594V116.032H115.213V117.03ZM117.03 120.736H115.708V116.032H117.03V120.736ZM115.679 115.405V114.378H117.059V115.405H115.679ZM119.951 119.548V117.22C119.951 117.061 119.865 116.982 119.694 116.982H119.342C119.171 116.982 119.085 117.061 119.085 117.22V119.548C119.085 119.707 119.171 119.786 119.342 119.786H119.694C119.865 119.786 119.951 119.707 119.951 119.548ZM118.952 116.032H120.084C120.503 116.032 120.802 116.122 120.983 116.303C121.164 116.483 121.254 116.745 121.254 117.087V119.681C121.254 120.023 121.164 120.285 120.983 120.465C120.802 120.646 120.503 120.736 120.084 120.736H118.952C118.533 120.736 118.233 120.646 118.053 120.465C117.872 120.285 117.782 120.023 117.782 119.681V117.087C117.782 116.745 117.872 116.483 118.053 116.303C118.233 116.122 118.533 116.032 118.952 116.032ZM124.071 116.032H124.309C125.051 116.032 125.422 116.384 125.422 117.087V120.736H124.09V117.268C124.09 117.109 124.004 117.03 123.833 117.03H123.605C123.421 117.03 123.328 117.131 123.328 117.334V120.736H122.006V116.032H123.309V116.564C123.399 116.209 123.652 116.032 124.071 116.032Z" fill="#65A04F"/>
</svg>
