<?xml version="1.0" standalone="no"?>
<!DOCTYPE svg PUBLIC "-//W3C//DTD SVG 20010904//EN"
 "http://www.w3.org/TR/2001/REC-SVG-20010904/DTD/svg10.dtd">
<svg version="1.0" xmlns="http://www.w3.org/2000/svg"
 width="512.000000pt" height="512.000000pt" viewBox="0 0 512.000000 512.000000"
 preserveAspectRatio="xMidYMid meet">

<g transform="translate(0.000000,512.000000) scale(0.100000,-0.100000)"
fill="#000000" stroke="none">
<path d="M1302 5097 c-22 -23 -22 -26 -22 -453 l0 -431 23 -21 c23 -22 26 -22
446 -22 256 0 430 4 441 10 31 17 40 67 40 231 l0 159 280 0 280 0 0 -844 0
-845 -56 25 c-30 13 -77 36 -104 49 -27 14 -58 25 -68 25 -11 0 -131 -53 -268
-119 l-249 -118 -5 202 c-4 181 -7 205 -24 224 -18 20 -28 21 -237 21 l-218 0
-20 -26 c-27 -35 -26 -57 3 -91 l24 -28 161 -3 161 -4 -2 -186 -3 -186 -318
-151 c-175 -83 -328 -161 -340 -174 l-22 -22 0 -829 0 -830 25 -24 c34 -32
635 -316 670 -316 34 0 70 40 70 77 0 14 -10 34 -23 45 -12 11 -149 80 -302
153 l-280 132 -3 722 c-1 396 0 721 2 721 2 0 253 -119 557 -264 l554 -264 3
-721 c1 -396 0 -721 -2 -721 -2 0 -70 32 -151 70 -116 56 -154 70 -177 65 -53
-12 -74 -73 -40 -114 18 -24 423 -221 452 -221 16 0 145 60 630 292 69 33 249
118 400 190 151 72 285 139 298 151 l22 20 0 492 c0 480 0 492 -20 510 -28 25
-76 23 -103 -4 -22 -21 -22 -25 -27 -473 l-5 -451 -553 -263 c-305 -145 -558
-264 -563 -264 -5 0 -9 295 -9 714 0 559 3 716 13 723 6 6 145 73 307 151 162
77 409 194 549 261 139 67 255 121 257 121 2 0 4 -53 4 -119 0 -125 11 -175
40 -191 30 -16 68 -12 90 10 19 19 20 33 20 238 0 214 0 219 -22 239 -13 12
-98 56 -190 99 l-168 79 0 568 0 567 320 0 320 0 0 -172 c1 -186 4 -198 54
-218 37 -14 805 -14 842 0 54 21 53 12 54 471 0 414 -1 426 -20 447 -21 22
-21 22 -455 22 -434 0 -434 0 -455 -22 -19 -20 -20 -34 -20 -200 l0 -178 -375
0 c-365 0 -376 -1 -393 -20 -16 -19 -17 -69 -22 -605 l-5 -585 -212 102 -213
101 0 911 c0 554 -4 924 -10 945 -17 61 -13 60 -377 61 l-333 0 0 159 c0 164
-9 214 -40 231 -12 6 -185 10 -443 10 l-424 0 -21 -23z m778 -302 l0 -175
-325 0 -325 0 0 175 0 175 325 0 325 0 0 -175z m0 -400 l0 -75 -325 0 -325 0
0 75 0 75 325 0 325 0 0 -75z m2890 -510 l0 -175 -325 0 -325 0 0 175 0 175
325 0 325 0 0 -175z m0 -400 l0 -75 -325 0 -325 0 0 75 0 75 325 0 325 0 0
-75z m-2490 -1191 c0 -296 -4 -484 -9 -482 -5 2 -104 48 -220 103 l-211 100 0
280 0 280 213 102 c116 55 215 102 220 102 4 1 7 -218 7 -485z m240 451 l70
-35 0 -415 0 -415 -70 -35 c-38 -19 -72 -35 -75 -35 -3 0 -5 218 -5 485 0 267
2 485 5 485 3 0 37 -16 75 -35z m450 -214 l205 -98 0 -138 0 -138 -205 -98
c-113 -54 -208 -99 -212 -99 -5 0 -8 151 -8 335 0 184 3 335 8 335 4 0 99 -45
212 -99z m-1280 -236 l0 -205 -22 9 c-13 5 -110 51 -217 103 l-194 93 214 103
c118 56 215 102 216 102 2 0 3 -92 3 -205z m1767 1 c1 -1 -27 -16 -62 -34
l-65 -32 0 65 0 65 63 -31 c34 -17 63 -32 64 -33z"/>
<path d="M1625 4845 c-14 -13 -25 -36 -25 -50 0 -14 11 -37 25 -50 22 -23 31
-25 125 -25 94 0 103 2 125 25 32 31 32 69 0 100 -22 23 -31 25 -125 25 -94 0
-103 -2 -125 -25z"/>
<path d="M4517 3942 c-24 -27 -22 -85 4 -108 18 -16 37 -19 124 -19 121 0 145
12 145 75 0 61 -19 70 -147 70 -94 0 -112 -3 -126 -18z"/>
<path d="M20 3568 c-19 -21 -20 -33 -20 -447 1 -459 0 -450 54 -471 17 -6 173
-10 421 -10 248 0 404 4 421 10 50 20 53 32 54 217 l0 171 179 4 c205 3 221 9
221 78 0 66 -12 70 -218 70 l-182 0 0 178 c0 166 -1 180 -20 200 -21 22 -21
22 -455 22 -434 0 -434 0 -455 -22z m780 -303 l0 -175 -325 0 -325 0 0 175 0
175 325 0 325 0 0 -175z m0 -400 l0 -75 -325 0 -325 0 0 75 0 75 325 0 325 0
0 -75z"/>
<path d="M347 3322 c-24 -27 -22 -85 4 -108 18 -16 37 -19 124 -19 121 0 145
12 145 75 0 61 -19 70 -147 70 -94 0 -112 -3 -126 -18z"/>
</g>
</svg>
